<?xml version="1.0" encoding="UTF-8"?>
<svg id="vector" xmlns="http://www.w3.org/2000/svg" viewBox="0 0 1402 1402">
  <defs>
    <style>
      .cls-1 {
        fill: #354b84;
      }

      .cls-2 {
        fill: #b7deea;
      }

      .cls-3 {
        fill: #d89234;
      }

      .cls-4 {
        fill: #344982;
      }

      .cls-5 {
        fill: #fffcef;
      }

      .cls-6 {
        fill: #1b1c1d;
      }

      .cls-7 {
        fill: #435ba5;
      }

      .cls-8 {
        fill: #fff;
      }

      .cls-9 {
        fill: #3c5799;
      }

      .cls-10 {
        fill: #a8d4df;
      }

      .cls-11 {
        fill: #b5dfe9;
      }

      .cls-12 {
        fill: #e15a4a;
      }

      .cls-13 {
        fill: #c14f40;
      }

      .cls-14 {
        fill: #f39a7f;
      }

      .cls-15 {
        fill: #e9dfde;
      }

      .cls-16 {
        fill: #ed937b;
      }

      .cls-17 {
        fill: #1d1d1b;
      }

      .cls-18 {
        fill: #f6ebeb;
      }

      .cls-19 {
        fill: #3c579a;
      }

      .cls-20 {
        fill: #282a2b;
      }

      .cls-21 {
        fill: #eb6551;
      }
    </style>
  </defs>
  <path class="cls-6" d="M1175.44,1126.18s-55.66,18.48-61.82,31.54c-6.16,13.05,81.05,7.68,81.05,7.68l4.95-9.4,4.28,9.59,27.24-.25-15.59-40.42-40.12,1.25"/>
  <path class="cls-20" d="M1302.17,1126.53s-54.62,21.36-60.1,34.72c-5.47,13.35,81.35,3.45,81.35,3.45l4.46-9.64,4.77,9.36,27.2-1.67-17.68-39.55-40,3.33"/>
  <path class="cls-20" d="M1255.16,532.58s-8.86-31.08,19.89-29.94l-8.07,14.95-11.82,14.99"/>
  <path class="cls-4" d="M1217.08,604.16s-19.38-59.26,36.27-57.15l15.34,27.59-22.88,33.25-28.73-3.69"/>
  <path class="cls-7" d="M1374.8,631.74c9.77-23.02-15.33-42.98-29.31-43.48.77-2.35,1.19-4.86,1.19-7.47,0-12.61-9.72-22.96-22.07-23.97,1.46-2.23,2.3-4.89,2.3-7.75,0-7.83-6.34-14.18-14.18-14.18h-33.34l-16.58,92.98,57.51,8.77-.03-.4s38.94,32.14,54.5-4.51"/>
  <path class="cls-17" d="M1320.94,637.46c-.24-.24-.47-.49-.7-.73l.17-.16.69.73-.16.16"/>
  <path class="cls-16" d="M1149.48,639.81l-85.97,45.93,47.7,12.88,90.32-6.66-52.05-52.15"/>
  <path class="cls-1" d="M1177.56,1130.78h40.68l37.64-289.32-91.15-44.38s.45,180.86,12.83,333.7"/>
  <path class="cls-20" d="M1298.45,547.94s18.04,44.16,35.67,83.8c9.94,22.34-57.68-35.9-57.68-35.9l7.27-47.9h14.74"/>
  <path class="cls-7" d="M1297.97,1130.78l44.17-.36-32.64-278.79-99.22-20.85s38.47,154.76,87.68,300"/>
  <path class="cls-9" d="M1276.21,861.89l44.81,268.7,21.12-.17-32.64-278.79-33.29,10.26"/>
  <path class="cls-20" d="M1165.27,839.65l146.26,29.32-2.03-17.34-145-20.85.77,8.87"/>
  <path class="cls-18" d="M1241.47,591.19c-1.28.84-91.99,48.62-91.99,48.62l52.05,52.15,39.95-100.78"/>
  <path class="cls-8" d="M1276.45,706.62l65.55,3.81s10.54-121.77-60.24-129.15l-5.31,125.34"/>
  <path class="cls-20" d="M1188.25,676.61l36.07-76.28,17.15-9.14-44.65,101.12-8.57-15.7"/>
  <path class="cls-8" d="M1248.46,587.56s-31.78,10.86-41.56,61.73c-9.77,50.87-44.73,162.18-42.28,162.18s104.06-18.44,104.06-18.44l15.46-101.06-2.39-110.68-33.29,6.28"/>
  <path class="cls-18" d="M1325.63,705.6l16.51-.34s.08-.36.21-1.04c1-24.93.51-116.55-60.6-122.92l-.88,20.76c5.78,2.13,48.12,20.6,44.75,103.55"/>
  <path class="cls-20" d="M1182.11,837.45l127.39,14.18v-61.95l-127.39,47.77Z"/>
  <path class="cls-18" d="M1201.11,788.72s74.93-83.78,75.1-128.01l4.01,128.97-66.41,24.5-12.71-25.46"/>
  <path class="cls-20" d="M1276.45,706.62l-.24-45.92s1.24,88.77-43.03,128.97c0,0,45.93-21.09,50.97-47.16,5.04-26.07-7.7-35.9-7.7-35.9"/>
  <path class="cls-14" d="M1276.45,706.62s6.86,51.32-59.37,94.92l7.66,36.84s116.31-25.13,117.41-133.14l-65.7,1.37"/>
  <path class="cls-16" d="M1188.91,829.87l-.34,1.52c-.82,3.75-4.23,6.4-7.57,5.88l-34.79-5.33c-3.34-.51-5.4-4-4.57-7.75l.34-1.52c.83-3.75,4.23-6.4,7.58-5.89l34.79,5.33c3.34.51,5.39,4,4.57,7.75"/>
  <path class="cls-14" d="M1188.26,814.3l-.33,1.52c-.83,3.75-4.24,6.4-7.58,5.88l-34.79-5.33c-3.34-.51-5.4-4-4.57-7.75l.33-1.51c.83-3.75,4.24-6.4,7.58-5.89l34.79,5.33c3.34.51,5.4,4,4.57,7.75"/>
  <path class="cls-14" d="M1196.93,799.91l-.33,1.52c-.83,3.75-4.24,6.4-7.58,5.89l-34.79-5.33c-3.34-.51-5.4-4-4.57-7.75l.33-1.52c.83-3.75,4.24-6.4,7.58-5.88l34.79,5.33c3.34.51,5.4,4,4.57,7.75"/>
  <path class="cls-14" d="M1198.44,804.39l3.19-2.95c2.89-2.67,3.51-7.23,1.38-10.13l-15.83-21.62c-2.12-2.9-6.22-3.1-9.11-.43l-3.19,2.95c-2.88,2.67-3.51,7.23-1.38,10.13l15.83,21.62c2.12,2.91,6.23,3.1,9.11.43"/>
  <path class="cls-14" d="M1234.29,833.08c-6.21,11.53-52.18,4.37-52.18,4.37,0,0,2.21-42.63,9.58-45.39,7.36-2.76,9.42-3.34,9.42-3.34l15.97,12.83s21.47,23.63,17.22,31.54"/>
  <path class="cls-16" d="M1224.73,838.39s112.71-29.51,117.41-133.14l-16.51.34s-4.23,82.53-103.52,120.18l2.62,12.62"/>
  <path class="cls-14" d="M1256.77,565.55l-11.87,36.26s21.22,13.58,35.32,0l3.92-60.46h-8.83l-18.54,24.2"/>
  <path class="cls-20" d="M1283.72,547.94l-.26-3.87-26.69,21.48-11.87,36.26,38.33-46.42.48-7.46"/>
  <path class="cls-14" d="M1267.19,511.99s-12.22,4.07-13.85,35.03c-1.63,30.95,13.85,20.37,25.25,3.26,11.4-17.11,4.07-50.51-11.4-38.28"/>
  <path class="cls-7" d="M1316.04,534.47c-1.59,11.59-13.82,3.59-25.52,3.59s-21.18-9.48-21.18-21.18,6.22-17.71,17.92-17.71,32.58,7.6,28.78,35.3"/>
  <path class="cls-14" d="M1300.83,541.35c0,5.69-4.61,10.31-10.3,10.31s-10.3-4.62-10.3-10.31,4.61-10.3,10.3-10.3,10.3,4.61,10.3,10.3"/>
  <path class="cls-20" d="M1111.21,698.62l-33.07-8.93,112.6-8.55,7.13,7.15-1.04,4.02-85.61,6.31"/>
  <path class="cls-20" d="M1146.17,641.58l38.57,40.02,5.99-.45-41.25-41.33-3.31,1.77"/>
  <path class="cls-20" d="M976.78,1151.63c0,12.02-38.07,21.76-85.04,21.76s-85.05-9.74-85.05-21.76,38.08-21.76,85.05-21.76,85.04,9.74,85.04,21.76"/>
  <path class="cls-8" d="M856.7,914.56s-57.49,83.14-122.76,179.33c-25.15,37.06,139.3,77.68,172.3,49.17,48.54-41.95,91.29-142.5,124.16-251.34l-173.7,22.85"/>
  <path class="cls-18" d="M805.12,1102.77c-16.54-23.83,82.39-139.86,82.39-139.86l-60.23-8.4c-22.94,33.36-57.73,84.12-95.07,139.14-25.15,37.07,139.3,77.68,172.3,49.17,11.12-9.61,21.94-22.31,32.41-37.47-27.61,14.45-115.94,20.28-131.8-2.58"/>
  <path class="cls-20" d="M856.7,914.56l-29.43,39.95,193.77-32.91,10.87-40.75-175.22,33.71"/>
  <path class="cls-8" d="M1053.51,897.41l-643.76,56.12,148.03-576.39,550.2,285.85-54.48,234.42"/>
  <path class="cls-18" d="M949.71,831.76c-196.72,46.39-422.86-8.68-422.86-8.68l-102.98,75.27-14.06,54.75,538.94-46.99c39.48-25.37,170.47-114.33.95-74.36"/>
  <path class="cls-8" d="M587.63,690.18c-45.42,166.8-127.43,289.71-183.18,274.53-55.74-15.18-64.11-162.7-18.69-329.5,45.42-166.8,127.43-289.71,183.17-274.53,55.75,15.18,64.12,162.71,18.7,329.5"/>
  <path class="cls-18" d="M575.59,690.91c-43.25,158.83-121.34,275.88-174.43,261.42-53.08-14.45-61.05-154.93-17.8-313.77,43.25-158.83,121.35-275.87,174.43-261.42,53.08,14.45,61.05,154.93,17.8,313.77"/>
  <path class="cls-15" d="M433,682.6l133.81,38.43c3.06-9.85,5.99-19.9,8.77-30.12,30.79-113.09,35.62-216.87,16.69-272.48-105.82-20.42-159.27,264.17-159.27,264.17"/>
  <path class="cls-15" d="M436.46,650.36s-28.07,201.32,30.06,267.25c35.23-38.3,71.51-107.24,98.54-191.42,14.17-72.36-128.59-75.83-128.59-75.83"/>
  <path class="cls-21" d="M589.95,629.74c-13.45-11.56-31.64-20.48-52.54-24.6-48.91-9.66-94.11,10.59-100.95,45.23-6.84,34.64,27.26,70.55,76.18,80.21,18.35,3.62,36.16,3.04,51.64-.93l25.67-99.9"/>
  <path class="cls-21" d="M864.99,913.84s162.97,4.46,212.18-29.82c46.19-32.19,72.83-146.44,48.26-197.1-23.96-49.4-168.14-102.23-168.14-102.23,0,0,35.34,76.19,21.99,156.97-23.43,141.65-114.28,172.18-114.28,172.18"/>
  <path class="cls-12" d="M1125.43,686.92c-3.51-7.23-9.6-14.54-17.44-21.75.07,153.14-158.28,166.59-158.28,166.59-35.34,65.48-84.72,82.08-84.72,82.08,0,0,162.97,4.46,212.18-29.82,46.19-32.19,72.83-146.44,48.26-197.1"/>
  <path class="cls-12" d="M573.49,618.28s23.67,74.75-39.72,71.14c-57.05-3.24-90.21-32.27-96.28-38.05-6.28,34.43,27.7,69.95,76.3,79.55,14.78,2.92,29.23,3.1,42.38.99,5.11-1.32,8.12-2.26,8.12-2.26l25.67-99.9-16.46-11.46"/>
  <path class="cls-8" d="M1132.11,707.7c-1.19-5.95-2.78-11.49-4.81-16.52-16.89-6.68-65.53-24.5-67.64-9.31-1.45,10.42,3.6,19.49,72.46,25.82"/>
  <path class="cls-8" d="M1121.3,813.95s-70.81-30.03-73.37-11.63c-1.43,10.23,3.41,19.14,68.6,25.46,1.75-4.32,3.4-8.76,4.93-13.28l-.16-.55"/>
  <path class="cls-8" d="M1132.67,766.64c.59-4.31,1.05-8.6,1.39-12.85l-.39-1.34s-70.81-30.02-73.37-11.63c-1.45,10.42,3.59,19.48,72.37,25.82"/>
  <path class="cls-11" d="M436.5,471.81l-345.04-93.95c-14.27-3.89-22.76-18.74-18.87-33.01l25.67-94.26c3.88-14.27,18.73-22.76,33-18.88l345.04,93.96c14.27,3.88,22.76,18.73,18.87,33l-25.66,94.26c-3.88,14.27-18.73,22.75-33,18.87"/>
  <path class="cls-11" d="M389.37,458.98l59.25,76.41v-84.9l-59.25,8.48Z"/>
  <path class="cls-5" d="M376.36,379.01c0,9.46-7.67,17.12-17.12,17.12s-17.12-7.66-17.12-17.12,7.67-17.12,17.12-17.12,17.12,7.67,17.12,17.12"/>
  <path class="cls-5" d="M296.37,355.17c0,9.46-7.67,17.12-17.12,17.12s-17.12-7.66-17.12-17.12,7.67-17.12,17.12-17.12,17.12,7.66,17.12,17.12"/>
  <path class="cls-5" d="M213.85,338.05c0,9.45-7.67,17.12-17.12,17.12s-17.12-7.67-17.12-17.12,7.67-17.13,17.12-17.13,17.12,7.67,17.12,17.13"/>
  <path class="cls-8" d="M390,851.82l-233.43,126.71c-6.55,3.56-14.74,1.13-18.3-5.43l-77.88-143.47c-3.56-6.55-1.13-14.74,5.42-18.3l233.43-126.71c6.55-3.56,14.74-1.13,18.3,5.42l77.88,143.47c3.56,6.55,1.13,14.74-5.42,18.3"/>
  <path class="cls-18" d="M382.48,809.91l-.14-.26c-2.82,2.19-81.25,62.77-166.78,77.11-84.39,14.15-123.34-82.08-125.69-88.12l-.06.03c-19.77,10.73-27.1,35.47-16.37,55.24l51.89,95.58c10.73,19.78,35.46,27.1,55.24,16.37l185.55-100.72c19.77-10.73,27.1-35.46,16.37-55.23"/>
  <path class="cls-17" d="M234.72,841.93l-166.12-11.1.04-.69,165.66,11.07,71.47-147.06.62.3-71.68,147.47"/>
  <path class="cls-17" d="M151.05,969.26l-.64-.25,49.8-128.22.64.25-49.8,128.22"/>
  <path class="cls-17" d="M386.73,836.2l-138.9-21.82.11-.68,138.9,21.81-.11.68"/>
  <path class="cls-21" d="M355.55,543.34c-3.83-5.73-8.75-10.87-14.71-15.09-26.11-18.47-62.25-12.28-80.72,13.83s-12.28,62.25,13.83,80.72c5.96,4.21,12.45,7.15,19.13,8.85l-.26.36,3.98.46c2.64.48,52.37,6.01,52.37,6.01l56.36,6.47-24.86-50.98s-21.76-45.06-23.1-47.38l-2.01-3.24"/>
  <path class="cls-13" d="M344.18,568.43c-1.92-2.87-4.37-5.44-7.36-7.55-13.05-9.24-31.13-6.14-40.36,6.91-9.24,13.06-6.14,31.13,6.91,40.36,2.98,2.11,6.22,3.57,9.56,4.43l-.13.18,1.99.23c1.32.24,26.18,3,26.18,3l28.18,3.24-12.43-25.49s-10.88-22.53-11.55-23.69l-1.01-1.62"/>
  <path class="cls-3" d="M476.15,182.73l10.54,142.47,31.54-49.06,5.09,174.27-47.17-267.67"/>
  <path class="cls-3" d="M402.27,876.75l-102.43,99.58,57.86-7.34-130.31,115.82,174.89-208.07"/>
  <path class="cls-20" d="M377.1,502.79l-138.22-34.09.22-.89,138.22,34.08-.22.9"/>
  <path class="cls-20" d="M238.96,637.3l-222.39-15.86.07-.92,222.39,15.86-.07.92"/>
  <path class="cls-20" d="M95.08,1069.41l-.55-.74,238.84-176.86.55.74-238.84,176.86"/>
  <path class="cls-20" d="M352.73,1053.73l-.76-.53,49.91-72.68.76.52-49.92,72.69"/>
  <path class="cls-20" d="M653.09,1198.71c0,9.67-45.78,17.51-102.24,17.51s-102.24-7.84-102.24-17.51,45.77-17.51,102.24-17.51,102.24,7.84,102.24,17.51"/>
  <path class="cls-20" d="M812.77,1189.83c0,7.29-26.87,13.19-60.01,13.19s-60.02-5.91-60.02-13.19,26.87-13.19,60.02-13.19,60.01,5.91,60.01,13.19"/>
  <path class="cls-9" d="M687.55,536.78c-32.13-9.23-84.04,73.05-84.04,73.05l29.77,77.33s109.41-134.53,54.27-150.37"/>
  <path class="cls-14" d="M559.69,1094.02v35.85l43.41-1.42-1.77-16.5-41.64-17.92"/>
  <path class="cls-20" d="M601.58,1114.28l-41.89-6.62v9.18l42.7,5.03-.81-7.59"/>
  <path class="cls-14" d="M770.77,1094.02l3.26,22.82,44.08-8.71-6.36-24.46-40.98,10.35"/>
  <path class="cls-7" d="M760.71,1110.15s4.09,18.38-14.79,25.8c-18.88,7.42-48.54,7.42-43.83,42.48l127.44-28.32-14.61-53.69-54.21,13.73"/>
  <path class="cls-19" d="M546.77,1125.17s.56,18.82-19.38,22.55c-19.94,3.73-49.08-1.86-51.04,33.47l130.49-3.83-4.24-55.48-55.83,3.28"/>
  <path class="cls-20" d="M799.77,1100.26l8.25,54.63,21.51-4.78-14.61-53.69-15.16,3.84"/>
  <path class="cls-20" d="M584.51,1122.95l.29,55.06,22.03-.64-4.24-55.48-18.08,1.06"/>
  <path class="cls-14" d="M633.28,687.16s-79.02,31.6-125.73-9.4c-46.7-41.01,15.21-150.71,15.21-150.71l36.78,14.36s-28.25,57.38-7.45,71.5c20.8,14.12,51.42-3.08,51.42-3.08l29.77,77.33"/>
  <path class="cls-10" d="M626.33,785.89l-73.16,320.08,50.34,13.04,87.65-225.93-5.36-94.43-59.47-12.77"/>
  <path class="cls-16" d="M507.55,677.75c36.63,32.15,93.11,19.66,115.8,12.77l-6.74-29.88s-69.96,18.46-93.85-19.55c-23.9-38.02-8.14-82.48-8.14-82.48l8.14-31.57s-61.91,109.7-15.21,150.71"/>
  <path class="cls-16" d="M599.94,611.6l-26.74,53.37,44.82,1.95-18.08-55.31Z"/>
  <path class="cls-20" d="M599.94,611.6l23.41,78.92,9.93-3.37-29.77-77.33-3.56,1.77"/>
  <path class="cls-2" d="M653.09,800.88s65.7,207.42,107.53,301.83l52.18-13.21-47.25-308.6-112.47,19.98"/>
  <path class="cls-20" d="M622.17,804.11l150.48,23.07-3.53-23.07h-146.95Z"/>
  <path class="cls-10" d="M738.68,867.87l54.79,226.15,19.34-4.52-34.6-226-39.52,4.38"/>
  <path class="cls-20" d="M701.19,878.22l77.02-14.72-2.04-13.35-74.97,28.07Z"/>
  <path class="cls-20" d="M622.17,804.11h142.8l2.67-5.19h-144.28l-1.19,5.19"/>
  <path class="cls-7" d="M757.13,555.83c-27.63-25.2-70.41-26.21-85.12-10.6-44.29,46.99-48.65,253.68-48.65,253.68h153.61l17.11-100.13s-9.67-118.08-36.95-142.95"/>
  <path class="cls-9" d="M733.32,612.91l-36.8,186h80.45l10.79-106.84-54.44-79.17"/>
  <path class="cls-20" d="M733.32,612.91l37.45,179.32,23.67-64.24-61.12-115.08Z"/>
  <path class="cls-7" d="M837.18,668.69c-.16-.97-35.11-101.17-98.63-125.39-6.05-2.31-21.07,32.95-21.07,32.95,0,0,42.3,103.71,56.12,122.53l63.58-30.09"/>
  <path class="cls-14" d="M773.59,698.78s29.17,47.13-16.47,118.72l23.6,32.65s102.64-75.45,56.45-181.46l-63.58,30.09"/>
  <path class="cls-14" d="M541.6,512.44l-6.51-3.75c-1.31-.76-1.76-2.46-1.01-3.77l19.92-34.5c.76-1.31,2.45-1.76,3.77-1.01l6.51,3.76c1.32.76,1.77,2.45,1.01,3.77l-19.91,34.49c-.76,1.32-2.45,1.77-3.77,1.01"/>
  <path class="cls-14" d="M555.86,512l-6.32-4.08c-1.27-.82-1.64-2.54-.82-3.81l21.63-33.45c.82-1.27,2.54-1.64,3.82-.81l6.31,4.08c1.27.83,1.64,2.54.82,3.81l-21.63,33.45c-.82,1.28-2.54,1.64-3.81.81"/>
  <path class="cls-14" d="M564.05,523.42l-6.32-4.08c-1.27-.82-1.64-2.54-.82-3.81l21.63-33.45c.82-1.27,2.54-1.64,3.81-.82l6.31,4.08c1.28.82,1.64,2.54.82,3.81l-21.63,33.45c-.82,1.27-2.54,1.64-3.81.81"/>
  <path class="cls-14" d="M553.91,521.79l3.05,9.72c.47,1.51,2.09,2.35,3.6,1.88l30.05-9.43c1.5-.47,2.35-2.09,1.87-3.6l-3.05-9.73c-.48-1.5-2.1-2.35-3.6-1.88l-30.04,9.43c-1.51.48-2.35,2.1-1.88,3.6"/>
  <path class="cls-14" d="M522.76,527.05s16.65-34.44,18.1-33.88c1.45.55,29.75,19.22,29.05,26.28l-.71,7.06-9.65,14.91-36.78-14.36"/>
  <path class="cls-16" d="M742,857.5l.34,1.63c.83,4.03-1.34,8.1-4.83,9.07l-36.33,10.02c-3.49.96-7.02-1.54-7.85-5.57l-.33-1.63c-.83-4.03,1.34-8.11,4.83-9.07l36.33-10.01c3.48-.97,7.02,1.54,7.85,5.57"/>
  <path class="cls-14" d="M734.56,842.57l.33,1.63c.83,4.03-1.34,8.11-4.83,9.07l-36.33,10.02c-3.49.96-7.02-1.55-7.85-5.58l-.33-1.63c-.83-4.03,1.34-8.1,4.83-9.07l36.33-10.02c3.48-.96,7.02,1.54,7.85,5.57"/>
  <path class="cls-14" d="M736.73,824.72l.34,1.63c.83,4.02-1.34,8.1-4.83,9.06l-36.33,10.02c-3.48.96-7.02-1.55-7.85-5.57l-.34-1.63c-.83-4.03,1.34-8.11,4.83-9.07l36.33-10.02c3.48-.96,7.02,1.55,7.85,5.57"/>
  <path class="cls-14" d="M740.16,828.44l1.83-4.28c1.65-3.86.26-8.59-3.08-10.5l-24.93-14.19c-3.34-1.91-7.44-.3-9.09,3.56l-1.83,4.28c-1.65,3.87-.26,8.59,3.08,10.5l24.93,14.2c3.35,1.91,7.44.3,9.09-3.57"/>
  <path class="cls-14" d="M787.76,840.78c-1.02,13.98-49.07,27.1-49.07,27.1,0,0-16.5-42.61-10.51-48.53,5.99-5.92,7.74-7.38,7.74-7.38l21.21,5.54s31.32,13.69,30.63,23.28"/>
  <path class="cls-8" d="M702.09,1178.43l2.22,8.13c1.92,7.06,9.04,11.37,16.18,9.81l100.23-21.79c7.37-1.6,12.07-8.84,10.54-16.23l-1.72-8.24-127.44,28.32"/>
  <path class="cls-8" d="M732.76,1140.11l8.75,29.56-39.42,8.76s-10.82-29.44,30.67-38.32"/>
  <path class="cls-8" d="M808.02,1154.89s-7.98-18.86,15.2-28l6.32,23.23-21.51,4.78"/>
  <path class="cls-8" d="M735.71,1150.46v-.69c3.25,0,27-3.19,36.79-17.1,4.97-7.06,5.64-15.79,2-25.97l.65-.24c3.73,10.41,3.03,19.36-2.08,26.61-5.34,7.58-14.59,11.86-21.4,14.11-7.59,2.5-14.35,3.28-15.95,3.28"/>
  <path class="cls-8" d="M476.34,1181.2l.64,8.4c.56,7.29,6.73,12.86,14.04,12.68l102.54-2.53c7.54-.18,13.52-6.42,13.4-13.96l-.13-8.42-130.49,3.83"/>
  <path class="cls-8" d="M513.67,1149.34l3.02,30.68-40.35,1.19s-5.09-30.95,37.33-31.86"/>
  <path class="cls-8" d="M584.8,1178.02s-4.28-20.03,20.2-24.64l1.84,24-22.03.64"/>
  <path class="cls-8" d="M521.28,1160.45c-3.34,0-5.78-.23-6.66-.39l.13-.68c3.19.61,27.12,1.95,39.35-9.87,6.21-5.99,8.52-14.45,6.85-25.13l.68-.11c1.7,10.91-.67,19.57-7.05,25.74-6.67,6.44-16.56,8.9-23.67,9.83-3.56.47-6.89.62-9.63.62"/>
  <path class="cls-9" d="M719.72,548.5s69.31,24.67,98.31,129.26l19.15-9.07s-39.85-121.76-119.71-132.37l2.25,12.18"/>
  <path class="cls-20" d="M773.59,698.78l63.58-30.09,1.76,4.45-65.34,25.65Z"/>
  <path class="cls-20" d="M772.01,1102.71c3.28-.54,27.76-2.46,27.76-2.46l15.16-3.84-2.12-6.92-40.8,10.76v2.46"/>
  <path class="cls-14" d="M699.81,510.03l-13.76,37.29s7.46,14.84,31.43,10.5l18.91-78.3-36.58,30.51"/>
  <path class="cls-20" d="M476.35,1181.43v-.46s130.48-3.83,130.48-3.83l.02.46-130.5,3.83"/>
  <path class="cls-20" d="M702.15,1178.65l-.1-.45,127.44-28.32.1.45-127.44,28.32"/>
  <path class="cls-20" d="M699.81,510.03l-13.76,37.29,47.28-55.13,3.07-12.68-36.58,30.51"/>
  <path class="cls-7" d="M730.03,505.82s12.26-15.85,17.56-24.51c5.16-8.42,8.42-27.59,0-32.47-3.64-2.12-9.05,1.57-9.05,1.57,0,0,2.44-6.45,0-9.17-2.81-3.11-8.87-1.63-10.23,1.63,0,0-7.33-10.04-15.21-11.95-7.23-1.74-8.41,6.44-1.89,23.59,0,0,21.52,3.85,23.34,14.43,1.83,10.58-4.53,36.89-4.53,36.89"/>
  <path class="cls-14" d="M708.5,459.34s-19.56,39.83-8.69,50.69c10.86,10.86,35.48-21.37,38.38-36.21,2.9-14.84-21.36-35.46-29.69-14.48"/>
  <path class="cls-14" d="M747.6,488.3c0,5-4.05,9.05-9.05,9.05s-9.05-4.05-9.05-9.05,4.05-9.05,9.05-9.05,9.05,4.05,9.05,9.05"/>
  <path class="cls-16" d="M780.73,850.14s99.34-73.02,58.58-176.33l-16.41,5.61s30.27,79.31-50.25,159.54l8.08,11.18"/>
  <path class="cls-16" d="M543.94,497.36s5.12,21.55,2.4,29.69c0,0,12.93-12.66,21.29-12.58,0,0-7.39-18.56-23.69-17.11"/>
  <path class="cls-16" d="M772.65,838.97s-34.41,11.62-38.5,12.97c-4.09,1.34,4.53,15.94,4.53,15.94,0,0,34.63-11.63,42.05-17.73l-8.08-11.18"/>
  <path class="cls-16" d="M695.91,845.43c2.28-.63,39.16-11.73,39.16-11.73l-45.81,9.03,6.65,2.7"/>
</svg>