<?xml version="1.0" encoding="UTF-8"?>
<svg id="Layer_1" data-name="Layer 1" xmlns="http://www.w3.org/2000/svg" viewBox="0 0 3750 2500">
  <defs>
    <style>
      .cls-1 {
        fill: #2e2c3f;
      }

      .cls-1, .cls-2, .cls-3, .cls-4, .cls-5, .cls-6, .cls-7 {
        stroke-width: 0px;
      }

      .cls-2 {
        fill: #d9d9f4;
      }

      .cls-3 {
        fill: #efa695;
      }

      .cls-4 {
        fill: #fff;
      }

      .cls-5 {
        fill: #a2a2e9;
      }

      .cls-6 {
        fill: #a1a1e8;
      }

      .cls-7 {
        fill: #5c56ce;
      }
    </style>
  </defs>
  <path class="cls-2" d="M1452.68,1030.67c0,2.28,0,4.65.09,6.93,1.14,55.81,9.13,111.27,25.36,164.71,5.26,17.29,11.32,34.4,18.25,51.25,21.76,52.39,54.93,101.26,96.7,140.4,24.92,23.43,53,43.35,83.54,58.53,93.72,46.68,180.68,11.93,280.28,11.23,70.73-.44,141.98,3.95,211.13,19.92,69.15,15.97,135.22,43.79,193.05,85.29,66.43,47.74,98.72,114.6,154.09,169.97,17.55,17.55,43.88,35.1,79.5,47.47,18.08,7.81,37.12,13.78,56.78,17.29,19.74,3.6,40.19,4.74,61.34,2.9,98.72-8.42,190.68-67.66,255.35-142.59,69.06-80.12,117.5-172.43,145.49-270.01,17.99-62.39,27.55-126.8,28.96-191.65,2.81-135.4-30.19-272.12-98.28-393.56-196.39-350.3-627.15-605.13-1032.91-513.43-3.77.88-7.46,1.76-11.23,2.72-2.28.44-4.65,1.05-6.93,1.67-11.93,2.98-23.87,6.41-35.63,10.09-30.8,9.74-60.81,21.67-89.59,35.98-22.64,11.32-44.49,24.04-65.46,38.17-24.22,16.41-47.56,33.52-69.67,51.42-17.55,14.04-34.4,28.61-50.46,43.79-36.68,34.4-69.5,71.69-98.11,112.67-13.86,19.74-26.76,40.37-38.43,61.95-15.71,28.52-29.48,58.71-41.24,90.73-22.82,61.86-39.22,127.33-46.95,193.67-3.6,30.71-5.35,61.69-5,92.49Z"/>
  <rect class="cls-6" x="2754.63" y="1488.24" width="6.01" height="586.29" transform="translate(332.65 3994.38) rotate(-75.24)"/>
  <rect class="cls-6" x="1981.19" y="1835.92" width="6.01" height="562.87" transform="translate(-621.5 3394.3) rotate(-72.97)"/>
  <rect class="cls-6" x="1914.3" y="2003.87" width="6.01" height="292.31" transform="translate(-692.98 3368.66) rotate(-73.3)"/>
  <g>
    <g>
      <path class="cls-1" d="M1669.15,605.11l-242.83,863.81,1393.48,332.52,217.64-1010.78c9.57-44.45-21.74-84.72-67.76-88.01l-1228.64-152.02c-29.97-2.14-61.01,21.42-71.89,54.48Z"/>
      <path class="cls-1" d="M1650.38,597.18l-242.84,860.69,1383.87,328.87,218.51-1005.97c9.61-44.25-21.38-84.3-67.09-87.53l-1220.87-150.4c-29.79-2.1-60.7,21.4-71.58,54.33Z"/>
      <path class="cls-2" d="M2793.48,1787.2l-4.14-.9,218.51-1005.97c4.44-20.43.21-40.58-11.9-56.74-12.3-16.42-31.72-26.7-53.26-28.23l.3-4.22c22.77,1.61,43.31,12.51,56.35,29.91,12.86,17.16,17.36,38.53,12.65,60.18l-218.51,1005.97Z"/>
      <polygon class="cls-7" points="1683.86 598.32 1454.32 1417.2 2744.51 1720.73 2956.14 768.74 1683.86 598.32"/>
      <polygon class="cls-4" points="1407.54 1457.87 976.27 1703.92 2347.44 2096.08 2791.41 1786.75 1407.54 1457.87"/>
      <path class="cls-2" d="M1446.39,1510.77l-148.96,98.78c-14.32,9.49-14.11,34.38.37,38.52l1108.57,317.21c6.58,1.88,13.54.31,18.91-4.29l144.42-123.61c15.02-12.86,9.5-39.18-9.16-44.01l-1101.68-285.06c-4.07-1.05-8.52-.18-12.49,2.45Z"/>
      <path class="cls-2" d="M1607.3,1783.42l-31.41,21.36c-9.64,6.55-8.99,23.52,1.05,26.59l256.98,78.66c4.15,1.27,8.65-.06,11.99-3.54l23.19-24.18c7.95-8.29,5.29-23.27-4.6-26.23l-248.35-74.25c-2.9-.87-6.07-.3-8.85,1.59Z"/>
    </g>
    <polygon class="cls-1" points="2791.41 1786.75 2819.79 1801.43 2340.87 2153.35 966.28 1748.94 976.27 1703.92 2347.44 2096.08 2791.41 1786.75"/>
    <polygon class="cls-1" points="2346.75 2098.49 969.87 1704.69 1406.3 1455.7 1408.78 1460.04 982.67 1703.15 2348.13 2093.68 2346.75 2098.49"/>
    <path class="cls-1" d="M1732.98,1526.95l-8.33,6.86c-9.54,7.85-7.75,24.35,2.95,26.93l516.46,124.74c21.83,5.27,44.91,2.59,65.85-7.72l22.53-11.09-599.46-139.73Z"/>
  </g>
  <g>
    <path class="cls-1" d="M3034.38,1052.09l-179.39-25.51c-4.15-.59-6.9-4.35-6.14-8.39l34.35-174.52c.76-4.04,4.74-6.84,8.89-6.25l179.05,19.14c4.15.59,6.9,4.35,6.14,8.39l-34,180.89c-.76,4.04-4.74,6.84-8.89,6.25Z"/>
    <g>
      <path class="cls-4" d="M3023.02,1050.48l-282.19-40.12c-4.15-.59-6.9-4.35-6.14-8.39l34.35-174.52c.76-4.04,4.74-6.84,8.89-6.25l281.85,33.75c4.15.59,6.9,4.35,6.14,8.39l-34,180.89c-.76,4.04-4.74,6.84-8.89,6.25Z"/>
      <path class="cls-1" d="M3024.12,1053.05c-.48,0-.96-.03-1.45-.1l-282.19-40.12c-2.72-.39-5.07-1.8-6.63-3.98-1.53-2.13-2.1-4.74-1.61-7.35l34.35-174.54c1-5.31,6.25-9.02,11.7-8.24l281.79,33.74c2.77.39,5.13,1.81,6.69,3.98,1.53,2.13,2.1,4.74,1.61,7.35l-34,180.89c-.91,4.86-5.35,8.36-10.25,8.37ZM2776.84,823.62c-2.59,0-4.88,1.8-5.35,4.28l-34.35,174.55c-.23,1.23.04,2.48.77,3.49.76,1.06,1.92,1.75,3.27,1.94l282.19,40.12c2.84.41,5.57-1.5,6.08-4.24l34-180.89c.24-1.25-.04-2.5-.76-3.51-.76-1.06-1.92-1.75-3.27-1.94l-281.79-33.74c-.26-.04-.53-.06-.79-.06Z"/>
    </g>
    <g>
      <polygon class="cls-7" points="2826.27 984.52 2799.55 980.72 2810.99 919.86 2837.71 923.66 2826.27 984.52"/>
      <polygon class="cls-2" points="2876.92 991.72 2850.2 987.92 2870.72 878.75 2897.44 882.55 2876.92 991.72"/>
      <polygon class="cls-7" points="2927.57 998.92 2900.84 995.12 2923.69 873.58 2950.41 877.38 2927.57 998.92"/>
      <polygon class="cls-2" points="2978.21 1006.12 2951.49 1002.32 2966.26 923.79 2992.98 927.59 2978.21 1006.12"/>
    </g>
  </g>
  <g>
    <path class="cls-5" d="M2028.07,800.89l-260.96-36.36c-15.39-2.14-26.17-16.41-24.02-31.8,2.14-15.39,16.41-26.17,31.8-24.03l260.96,36.36c15.39,2.14,26.17,16.41,24.02,31.8-2.14,15.39-16.41,26.17-31.8,24.02ZM1774.29,712.99c-13.02-1.81-25.09,7.31-26.91,20.33-1.81,13.02,7.3,25.1,20.32,26.91l260.96,36.36c13.02,1.81,25.1-7.31,26.91-20.33,1.81-13.02-7.31-25.1-20.33-26.91l-260.96-36.36Z"/>
    <circle class="cls-5" cx="1773.53" cy="736.97" r="16.58" transform="translate(-85.82 1217.94) rotate(-37.07)"/>
  </g>
  <g>
    <path class="cls-5" d="M1808.82,822.77l-82.1-11.44c-4.84-.67-8.23-5.16-7.56-10.01s5.16-8.23,10.01-7.56l82.1,11.44c4.84.67,8.23,5.16,7.56,10-.67,4.84-5.16,8.23-10,7.56ZM1728.98,795.12c-4.1-.57-7.89,2.3-8.46,6.4-.57,4.1,2.3,7.89,6.39,8.47l82.1,11.44c4.1.57,7.9-2.3,8.47-6.4.57-4.1-2.3-7.9-6.4-8.47l-82.1-11.44Z"/>
    <path class="cls-5" d="M1733.91,803.38c-.4,2.85-3.03,4.84-5.88,4.45-2.85-.4-4.84-3.03-4.45-5.88.4-2.85,3.03-4.84,5.88-4.45,2.85.4,4.84,3.03,4.45,5.88Z"/>
  </g>
  <g>
    <path class="cls-5" d="M2583.72,1497.68l-82.1-11.44c-4.84-.67-8.23-5.16-7.56-10.01.67-4.84,5.16-8.23,10.01-7.56l82.1,11.44c4.84.67,8.23,5.16,7.56,10.01-.67,4.84-5.16,8.23-10,7.56ZM2503.89,1470.03c-4.1-.57-7.89,2.3-8.46,6.4-.57,4.1,2.3,7.89,6.39,8.47l82.1,11.44c4.1.57,7.9-2.3,8.47-6.4.57-4.1-2.3-7.9-6.4-8.47l-82.1-11.44Z"/>
    <path class="cls-5" d="M2508.81,1478.29c-.4,2.85-3.03,4.84-5.88,4.45-2.85-.4-4.84-3.03-4.45-5.88.4-2.85,3.03-4.84,5.88-4.45,2.85.4,4.84,3.03,4.45,5.88Z"/>
  </g>
  <g>
    <g>
      <g>
        <polygon class="cls-6" points="1373.33 361.43 1464.05 486.6 1239.88 454.92 1373.33 361.43"/>
        <polygon class="cls-6" points="1282.76 458.16 1422.25 477.87 1416.97 503.99 1411.74 530.75 1397.75 528.78 1400.11 516.71 1384.92 514.56 1386.83 504.79 1371.65 502.65 1367.91 521.8 1355.78 520.09 1359.45 501.32 1348.02 499.7 1340.94 535.91 1324.78 533.62 1328.3 515.62 1316.47 513.95 1315.09 521.03 1301.69 519.14 1305.5 499.6 1291.91 497.68 1283.37 541.35 1266.62 538.99 1282.76 458.16"/>
      </g>
      <polygon class="cls-6" points="1384.92 644.87 1387.96 645.3 1410.57 529.6 1407.53 529.17 1384.92 644.87"/>
      <polygon class="cls-6" points="1341.42 684 1344.47 684.43 1365.12 578.73 1385.53 564.49 1395.3 514.45 1392.26 514.02 1382.72 562.83 1362.32 577.08 1341.42 684"/>
      <polygon class="cls-6" points="1336.2 611.22 1339.25 611.65 1347.93 567.25 1370.67 551.37 1374.76 530.45 1371.72 530.02 1367.87 549.71 1345.12 565.59 1336.2 611.22"/>
      <polygon class="cls-6" points="1355.07 542.63 1358.12 543.06 1362.76 519.31 1359.72 518.88 1355.07 542.63"/>
      <polygon class="cls-6" points="1322.88 679.42 1325.92 679.85 1333.49 641.11 1318.65 620.71 1335.44 534.74 1332.4 534.31 1315.36 621.5 1330.21 641.91 1322.88 679.42"/>
      <polygon class="cls-6" points="1317.41 648.61 1319.97 646.83 1306.92 628.89 1320.65 558.63 1317.6 558.2 1303.63 629.69 1317.41 648.61"/>
      <polygon class="cls-6" points="1366.65 663.75 1369.69 664.18 1383.73 592.34 1380.68 591.91 1366.65 663.75"/>
      <polygon class="cls-6" points="1279.18 620.09 1282.23 620.52 1290.57 577.84 1300.42 570.97 1310.64 518.63 1307.6 518.2 1297.61 569.31 1287.76 576.19 1279.18 620.09"/>
      <polygon class="cls-6" points="1272.09 669.87 1275.13 670.31 1279.32 648.89 1295.03 637.92 1304.88 587.5 1301.83 587.07 1292.22 636.26 1276.51 647.23 1272.09 669.87"/>
      <polygon class="cls-6" points="1262.84 642.58 1265.88 643.01 1276.07 590.87 1268.89 581 1277.15 538.71 1274.11 538.28 1265.6 581.8 1272.78 591.67 1262.84 642.58"/>
      <polygon class="cls-6" points="1247.09 662.01 1250.14 662.44 1263.91 591.95 1260.87 591.52 1247.09 662.01"/>
    </g>
    <path class="cls-6" d="M1351.26,543.61c-.55,2.79,1.34,5.38,4.21,5.79,2.87.41,5.64-1.53,6.19-4.32.55-2.79-1.34-5.38-4.21-5.79-2.87-.41-5.64,1.53-6.19,4.32Z"/>
    <path class="cls-6" d="M1367.81,528.09c-.55,2.79,1.34,5.38,4.21,5.79,2.87.41,5.64-1.53,6.19-4.32.55-2.79-1.34-5.38-4.21-5.79s-5.64,1.53-6.19,4.32Z"/>
    <path class="cls-6" d="M1377.5,588.07c-.55,2.79,1.34,5.38,4.21,5.79s5.64-1.53,6.19-4.32c.55-2.79-1.34-5.38-4.21-5.79-2.87-.41-5.64,1.53-6.19,4.32Z"/>
    <path class="cls-6" d="M1380.31,647.32c-.55,2.79,1.34,5.38,4.21,5.79,2.87.41,5.64-1.53,6.19-4.32.55-2.79-1.34-5.38-4.21-5.79-2.87-.41-5.64,1.53-6.19,4.32Z"/>
    <path class="cls-6" d="M1362.08,666.99c-.55,2.79,1.34,5.38,4.21,5.79,2.87.41,5.64-1.53,6.19-4.32.55-2.79-1.34-5.38-4.21-5.79-2.87-.41-5.64,1.53-6.19,4.32Z"/>
    <path class="cls-6" d="M1337.44,686.34c-.55,2.79,1.34,5.38,4.21,5.79,2.87.41,5.64-1.53,6.19-4.32.55-2.79-1.34-5.38-4.21-5.79-2.87-.41-5.64,1.53-6.19,4.32Z"/>
    <path class="cls-6" d="M1318.47,682.88c-.55,2.79,1.34,5.38,4.21,5.79,2.87.41,5.64-1.53,6.19-4.32.55-2.79-1.34-5.38-4.21-5.79s-5.64,1.53-6.19,4.32Z"/>
    <path class="cls-6" d="M1314.71,649.27c-.55,2.79,1.34,5.38,4.21,5.79s5.64-1.53,6.19-4.32c.55-2.79-1.34-5.38-4.21-5.79s-5.64,1.53-6.19,4.32Z"/>
    <path class="cls-6" d="M1267.76,672.95c-.55,2.79,1.34,5.38,4.21,5.79,2.87.41,5.64-1.53,6.19-4.32.55-2.79-1.34-5.38-4.21-5.79-2.87-.41-5.64,1.53-6.19,4.32Z"/>
    <path class="cls-6" d="M1258.15,645.42c-.55,2.79,1.34,5.38,4.21,5.79,2.87.41,5.64-1.53,6.19-4.32.55-2.79-1.34-5.38-4.21-5.79-2.87-.41-5.64,1.53-6.19,4.32Z"/>
    <path class="cls-6" d="M1274.78,622.23c-.55,2.79,1.34,5.38,4.21,5.79,2.87.41,5.64-1.53,6.19-4.32.55-2.79-1.34-5.38-4.21-5.79s-5.64,1.53-6.19,4.32Z"/>
    <path class="cls-6" d="M1242.82,665.54c-.55,2.79,1.34,5.38,4.21,5.79s5.64-1.53,6.19-4.32c.55-2.79-1.34-5.38-4.21-5.79s-5.64,1.53-6.19,4.32Z"/>
    <path class="cls-6" d="M1257.16,592.18c-.55,2.79,1.34,5.38,4.21,5.79,2.87.41,5.64-1.53,6.19-4.32.55-2.79-1.34-5.38-4.21-5.79-2.87-.41-5.64,1.53-6.19,4.32Z"/>
    <path class="cls-6" d="M1297.57,586.47c-.55,2.79,1.34,5.38,4.21,5.79s5.64-1.53,6.19-4.32c.55-2.79-1.34-5.38-4.21-5.79s-5.64,1.53-6.19,4.32Z"/>
    <path class="cls-6" d="M1313.77,557.46c-.55,2.79,1.34,5.38,4.21,5.79,2.87.41,5.64-1.53,6.19-4.32.55-2.79-1.34-5.38-4.21-5.79s-5.64,1.53-6.19,4.32Z"/>
    <path class="cls-6" d="M1331.46,614.09c-.55,2.79,1.34,5.38,4.21,5.79,2.87.41,5.64-1.53,6.19-4.32.55-2.79-1.34-5.38-4.21-5.79-2.87-.41-5.64,1.53-6.19,4.32Z"/>
  </g>
  <path class="cls-2" d="M2703.36,1162.05l6.79-1.06,1.54-6.23-5.43-4.27-13.48,5.18,6.15,2.03,4.44,4.35ZM2602.21,1256.04c-3.46,5.26-4,11.92-1.41,17.66l6.14,13.65.29,3.62c.44,5.43,3.16,10.42,7.49,13.74l10.04,7.68,7.19,22.28c2.16,6.68,7.04,12.15,13.44,15.04l.85,26.19-7.73,11.84c-2.71,4.15,1.73,9.25,6.21,7.14h0c13.54-14.48,23.3-32.09,28.39-51.25l9.21-34.64,1.12-20.73,12.28-11.96,11.7-6.57,6.82-16.34,10.44-9.51-7.41-22.33.6-3.77c.98-6.12-3.05-11.92-9.13-13.13l-10.23-6.81-32.87,15.67-25.77,24.78-35.96,15.16-1.71,2.6ZM2778.96,1193l2.94-.46.67-2.7-2.36-1.85-5.85,2.25,2.67.88,1.93,1.89ZM2770.82,1191.9l-4.14,2.83s1.96,9.58,2.12,9.8c.17.22,2.27,2.58,4.38.59,2.1-1.99,6.25-2.39,6.25-2.39l1.15-2.57-2.05-3.66c-1.48-.39-5.8-1.01-5.8-1.01l-1.91-3.61ZM2539.54,1053.02l8.88,2.71,7.87,4.33,4.41-3.68,5.26-7.3c-1.08-.68-4.71-4.84-4.71-4.84l-8.66,1.73-11.98-.05-1.07,7.1ZM2565.45,1034.35l24.81,21.09,8.09.19s.79.28,1.87.66c3.4,1.19,7.17-.75,8.02-4.26.05-.21.08-.36.07-.43-.05-.6-2.07-5.37-2.07-5.37l1.77-14.91-3.95-3.68-6.54-19.75,5.54-5.99,2.15-5.01,8.41,2.28,2.75,4.29,6.36-2.15.32-5.47,3.94-4.64,13.17,4.27,2.91,5.38,4.72.54,10.29,8.51-9.46,4.85-5.71-1.15s-11.23,14.33-11.25,15.27c0,.37-.48,1.84-1.05,3.47-1.13,3.24-.11,6.83,2.57,8.97l4.51-.11,3.17,5.61,13.3,1.55,3.83-2.86,5.49-.35c2.38-.15,4.14-2.28,3.84-4.65l-.57-4.47-10.12-5.13,5.31-10.96,5.67,5.92,2.24,5.59,7.2,1.87,15.87,16.46s6.46,1.18,6.72,1.24c.26.06,18.57,7.84,18.57,7.84,0,0,3.59,5.48,3,5.53-.6.05-6.13,6.27-7.72,6.5-1.59.21-8.39,2.37-8.39,2.37l-3.32,8.16-5.77-3.08s-14.02-26.06-14.05-26.39c-.03-.33-5.63-2.35-5.63-2.35l-4.08.11c-4.55.13-8.02,4.12-7.52,8.64l-6.72-2.24s-8.94-1.24-9.15-.71c-.21.53-2.63,7.26-2.63,7.26l-9.33,21.24-.23,1.92c-.64,5.36,2.92,10.33,8.21,11.43l8.67-7.07,9.65,4.73-4.42,9.37,3.66,5.4,7.42-.78s26.82,16.41,28.67,16.18c1.85-.23,14.77,15.53,14.77,15.53l7.62,2.86,4.95,6.49s6.14,8.59,6.43,8.06c.29-.53,9.25-9.67,9.25-9.67l13.52,1.28s7-2.79,7.18-2.47c.2.34,3.42,5.34,3.42,5.34l1.66,1.89c4.8,5.47,5.43,13.44,1.57,19.6l-.56.89s-8.36,3.72-9.28,2.7c-.55-.59-5.95-2.99-10.39-4.9-2.99-1.29-6.39.62-6.85,3.85l5.95,6.31-6.07,3.79-8.41-1-2.72,6.61c-2.08,5.07,2.61,10.3,7.88,8.77l6.15-6.96,9.69,1.08s22.89-14.02,23.96-14.44c1.07-.42,9.87-.8,10.03-1.07.15-.27,12.41-20.71,12.41-20.71l5.54-5.99,7.69,4.93c-10.2-65.23-46.23-120.95-96.64-157.4l-6.8-3.43-6.68-.48-5.57-1.57-7.19.15c-2.74-1.59-6.08-1.75-8.96-.43l-1.24.57s-4.72-1.74-6.95,2.2l-7.12-.87s-3.61-3.61-3.66-4.2c-.05-.59.06-10.88.06-10.88,0,0-2.24-4.57-5.13-4.67-2.9-.12-6.04,1.08-6.04,1.08l-4.79-2.67-4.15,1.36-48.65-11.16-5.69,4.12s-16.12-2.85-17.68-2.21c-1.56.64-8.59,3-8.59,3,0,0-5.57-7.64-6.78-7.54-1.19.1-3.99.19-3.99.19l-26.05-2.59c-2.86.61-5.69,1.27-8.5,1.99l-1.39,1.23-5.44,2.11s-8.31,1.68-9.56,1.47c-2.37.76-4.74,1.58-7.07,2.46l-.63,1.68,2.48,5.39,6.79-.3,5.78,4.44,15.66,26.37s.2,5.6-.02,5.99c-.22.41,3.64,8.82,3.64,8.82l8.28,2.39,6.59.13,14.72,8.82,8.5.92ZM2595.93,979.08c.49-.04,9.19.43,9.19.43l4.78,2.97,3.09-.59s3.97,5.37,4.02,5.52l-8.42-2.79-2.53-1.7s-3.17.59-3.36.9c-.19.31-6.31-4.44-6.77-4.75Z"/>
  <g>
    <ellipse class="cls-1" cx="2576.77" cy="660.94" rx="150.19" ry="134.84" transform="translate(79.83 1578.47) rotate(-34.56)"/>
    <g>
      <ellipse class="cls-4" cx="2558.1" cy="640.33" rx="150.19" ry="134.84" transform="translate(88.23 1564.24) rotate(-34.56)"/>
      <path class="cls-1" d="M2543.55,782.8c-7.65,0-15.34-.58-23-1.78-38.11-5.96-70.08-26.14-90.02-56.82-20.1-30.93-25.58-68.76-15.43-106.52,20.82-77.41,101.82-130.36,180.56-118.04,38.11,5.96,70.08,26.14,90.02,56.82,20.1,30.93,25.58,68.76,15.43,106.52-18.79,69.87-86.62,119.82-157.56,119.82ZM2572.6,502.85c-68.74,0-134.47,48.4-152.68,116.12-9.78,36.38-4.53,72.78,14.79,102.5,19.16,29.47,49.92,48.86,86.61,54.6,7.42,1.16,14.88,1.72,22.29,1.72,68.75,0,134.47-48.4,152.68-116.12,9.78-36.38,4.53-72.78-14.79-102.5-19.16-29.47-49.92-48.86-86.61-54.6-7.42-1.16-14.88-1.72-22.29-1.72Z"/>
    </g>
    <path class="cls-7" d="M2580.78,557.04c-46.7-7.46-94.86,23.84-107.36,69.76-12.5,45.92,15.32,89.35,62.01,96.81,46.69,7.46,94.86-23.84,107.36-69.76,12.5-45.92-15.32-89.35-62.01-96.81ZM2578.2,566.51c4.28,6.97,13.82,24.98,15.06,48.47-19.41,2.28-37.54-.71-54.01-8.89,13.38-21.02,31.42-34.52,38.95-39.59ZM2580.95,666.92c-17.74-8.47-37.1-11.47-57.66-8.96.21-17.07,4.99-31.99,11.77-44.62,9.02,4.46,18.47,7.57,28.36,9.15,9.59,1.53,19.59,1.62,29.9.42-.41,13.52-3.8,28.48-12.36,44.01ZM2576.63,674.11c-8.52,13.08-20.93,26.42-38.48,39.52-9.2-17.28-13.62-33.24-14.64-47.76,18.94-2.31,36.77.46,53.12,8.24ZM2601.18,621.73c10.96-1.96,22.01-5.39,32.96-10.22,4.02,12.59,4.56,26.67.65,41.06-3.92,14.39-11.77,27.14-22.03,37.45-7.52-7.8-15.88-14.33-24.94-19.49,9.46-17.17,13.06-33.82,13.37-48.8ZM2631.38,604.3c-10.1,4.46-20.26,7.64-30.35,9.49-1.12-20.48-7.92-37.13-12.8-46.62,20.04,5.93,35.24,19.61,43.14,37.13ZM2568.66,564.04c-9.38,7.18-24.19,20.25-35.87,38.52-7.96-4.72-15.53-10.77-22.61-18.07,16.32-13.41,37.21-21.14,58.48-20.45ZM2503.85,590.22c7.67,7.92,15.93,14.48,24.64,19.57-7.66,13.97-13.16,30.54-13.39,49.45-10.64,2.01-21.66,5.5-32.87,10.42-4.18-12.72-4.78-27-.81-41.58,3.97-14.58,11.97-27.48,22.43-37.86ZM2485.05,676.85c10.35-4.54,20.49-7.78,30.27-9.67.93,14.29,4.92,29.81,13.16,46.47-20.1-5.79-35.4-19.36-43.43-36.8ZM2547,716.61c16.37-12.84,28.18-25.95,36.5-38.86,8.26,4.77,16.06,10.9,22.96,18.04-16.53,13.75-37.82,21.67-59.46,20.82Z"/>
  </g>
  <g>
    <ellipse class="cls-1" cx="1926.54" cy="421.53" rx="98.42" ry="88.36" transform="translate(11.93 894.31) rotate(-26.21)"/>
    <g>
      <ellipse class="cls-4" cx="1917.54" cy="410.31" rx="98.42" ry="88.36" transform="translate(15.96 889.18) rotate(-26.21)"/>
      <path class="cls-1" d="M1909.2,503.22c-9.96,0-19.95-1.43-29.65-4.44-24.38-7.57-43.37-23.86-53.49-45.87-10.19-22.19-10.15-47.49.13-71.23l2.29.99-2.29-.99c21.03-48.6,79.06-75.44,129.35-59.83,24.38,7.57,43.37,23.86,53.49,45.87,10.2,22.19,10.15,47.49-.13,71.23-16.97,39.22-58.04,64.27-99.7,64.27ZM1925.8,322.39c-39.7,0-78.84,23.88-95.03,61.27-9.71,22.43-9.77,46.28-.17,67.16,9.51,20.7,27.42,36.04,50.43,43.18,47.93,14.88,103.23-10.71,123.28-57.04,9.71-22.43,9.77-46.28.17-67.16-9.51-20.7-27.42-36.04-50.43-43.18-9.24-2.87-18.76-4.23-28.25-4.23Z"/>
    </g>
    <g>
      <path class="cls-7" d="M1874.1,400.35c-10.47,24.2,1.33,50.12,26.37,57.89,25.01,7.76,53.79-5.55,64.27-29.76,10.46-24.17-1.35-50.08-26.35-57.85l-18.95,43.79-45.34-14.07Z"/>
      <path class="cls-6" d="M1870.35,392.12l45.34,14.07,18.95-43.79c-25.04-7.77-53.82,5.54-64.28,29.71Z"/>
    </g>
  </g>
  <g>
    <ellipse class="cls-1" cx="2814.18" cy="1524.65" rx="107.37" ry="96.39" transform="translate(-362.12 1918.65) rotate(-35.52)"/>
    <g>
      <ellipse class="cls-4" cx="2807.21" cy="1504.61" rx="107.37" ry="96.39" transform="translate(-351.78 1910.89) rotate(-35.52)"/>
      <path class="cls-1" d="M2796.7,1607.35c-4.91,0-9.83-.33-14.76-1.02-27.52-3.84-50.78-17.99-65.52-39.85-14.85-22.04-19.26-49.22-12.4-76.53,14.04-55.92,71.67-94.98,128.45-87.06,27.52,3.84,50.79,17.99,65.52,39.85,14.85,22.04,19.26,49.22,12.4,76.53-12.82,51.07-62.01,88.08-113.69,88.08ZM2708.88,1491.17c-6.51,25.92-2.35,51.67,11.7,72.52,13.93,20.67,35.97,34.05,62.06,37.69,4.71.66,9.43.98,14.12.98,49.46,0,96.52-35.42,108.79-84.3,6.51-25.92,2.35-51.67-11.7-72.52-13.93-20.67-35.97-34.05-62.06-37.69-54.34-7.58-109.47,29.81-122.91,83.33h0Z"/>
    </g>
    <g>
      <ellipse class="cls-1" cx="2812.34" cy="1484.17" rx="28.77" ry="25.83" transform="translate(-338.95 1910.07) rotate(-35.52)"/>
      <path class="cls-1" d="M2751.08,1545.47l88.64,12.36,5.65-22.51c1.85-7.37-2.71-14.19-10.19-15.23l-61.55-8.58c-7.48-1.04-15.04,4.08-16.89,11.45l-5.65,22.51Z"/>
    </g>
  </g>
  <g>
    <path class="cls-1" d="M1800.6,1076.57c-43.52,215.89,96.25,417.87,309.9,452.8,211.59,34.59,419.09-107.49,465.71-318.94,47.1-213.58-86.86-419.68-301.53-458.73-216.8-39.43-430.12,106.77-474.08,324.87Z"/>
    <g>
      <path class="cls-4" d="M1765.61,1048.57c-43.52,215.89,96.25,417.87,309.9,452.8,211.59,34.59,419.09-107.49,465.71-318.94,47.1-213.58-86.86-419.68-301.53-458.73-216.8-39.43-430.12,106.77-474.08,324.87Z"/>
      <path class="cls-1" d="M2139.63,1509.08c-21.5,0-43.05-1.73-64.52-5.24-52.39-8.57-101.22-27.13-145.11-55.16-42.47-27.12-78.55-61.93-107.26-103.45-28.98-41.92-48.98-88.56-59.43-138.63-10.83-51.9-10.88-105.24-.14-158.51,10.81-53.62,31.84-103.83,62.52-149.22,29.61-43.82,66.87-81.28,110.75-111.36,43.88-30.07,92.12-51.2,143.36-62.78,53.09-12,107.04-13.17,160.35-3.48,103.32,18.79,191.79,76.6,249.11,162.79,28.33,42.59,47.55,89.8,57.12,140.32,9.9,52.21,8.99,105.58-2.71,158.62-22.69,102.89-83.78,192.83-172.03,253.26-69.85,47.83-150.4,72.85-232.01,72.85ZM1765.61,1048.57l2.45.49c-10.61,52.61-10.56,105.26.14,156.5,10.31,49.41,30.05,95.44,58.65,136.81,28.33,40.97,63.94,75.32,105.84,102.08,43.32,27.67,91.51,45.99,143.23,54.44,101.7,16.63,205.72-7.1,292.9-66.8,87.19-59.71,147.55-148.57,169.97-250.21,11.55-52.38,12.45-105.07,2.68-156.61-9.45-49.86-28.42-96.45-56.38-138.48-56.56-85.04-143.87-142.09-245.84-160.64-52.65-9.58-105.93-8.42-158.36,3.43-50.62,11.44-98.28,32.31-141.64,62.03-43.36,29.72-80.18,66.73-109.43,110.03-30.3,44.84-51.08,94.44-61.76,147.41l-2.45-.49Z"/>
    </g>
    <path class="cls-4" d="M1813.74,1043.6c37.55-185.24,219.36-309.81,403.55-276.53l4.27-20.26c-195.35-35.44-388.27,96.76-428.02,293.3l20.2,3.49Z"/>
    <path class="cls-5" d="M2127.55,1454.11l.73-8.27c4.54.2,9.06.29,13.58.3,2.47.06,5.11-.02,7.66-.07l-.2,8.28c-2.62.05-5.32.13-7.84.07-4.63,0-9.27-.11-13.92-.31ZM2168.35,1445.15c7.06-.55,14.18-1.32,21.18-2.31l.81,8.19c-7.17,1.01-14.48,1.81-21.71,2.37l-.29-8.24ZM2086.85,1449.92l1.71-8.17c6.88,1.12,13.94,2.05,20.98,2.76l-1.2,8.24c-7.22-.72-14.45-1.67-21.49-2.83ZM2208.22,1439.67c6.93-1.38,13.95-3,20.85-4.82l1.81,7.99c-7.08,1.87-14.27,3.53-21.37,4.94l-1.29-8.1ZM2047.08,1440.96l2.68-7.97c6.69,1.95,13.56,3.7,20.42,5.22l-2.18,8.1c-7.02-1.56-14.06-3.36-20.92-5.35ZM2247.32,1429.47c6.75-2.19,13.54-4.63,20.2-7.26l2.78,7.66c-6.82,2.69-13.79,5.19-20.71,7.44l-2.27-7.85ZM2008.8,1427.27l3.63-7.65c6.36,2.74,12.94,5.31,19.57,7.66l-3.14,7.83c-6.78-2.41-13.53-5.04-20.05-7.84ZM2285.05,1414.75c6.52-3,13-6.21,19.27-9.57l3.7,7.24c-6.42,3.44-13.06,6.73-19.74,9.8l-3.22-7.47ZM1972.62,1409.01l4.52-7.2c5.97,3.5,12.16,6.86,18.4,9.98l-4.06,7.44c-6.4-3.2-12.74-6.64-18.86-10.22ZM2320.91,1395.71c6.14-3.73,12.22-7.68,18.07-11.73l4.56,6.7c-6,4.16-12.22,8.21-18.52,12.03l-4.11-7ZM1939.07,1386.42l5.37-6.65c5.54,4.26,11.26,8.36,16.99,12.19l-4.93,6.95c-5.88-3.92-11.74-8.12-17.43-12.49ZM2354.4,1372.67c5.68-4.41,11.26-9.02,16.61-13.73l5.36,6.09c-5.48,4.82-11.21,9.55-17.04,14.07l-4.94-6.43ZM1908.61,1359.83l6.12-6c4.92,4.87,10.08,9.65,15.35,14.22l-5.74,6.35c-5.39-4.68-10.69-9.58-15.73-14.57ZM2385.04,1345.94c5.13-5.01,10.15-10.24,14.94-15.54l6.08,5.37c-4.9,5.43-10.06,10.79-15.31,15.94l-5.72-5.77ZM1881.66,1329.61l6.78-5.27c4.29,5.46,8.82,10.86,13.47,16.04l-6.45,5.67c-4.77-5.31-9.41-10.84-13.81-16.44ZM2412.4,1315.89c4.5-5.56,8.88-11.32,13.02-17.13l6.73,4.57c-4.24,5.96-8.74,11.87-13.36,17.56l-6.39-5.01ZM1858.64,1296.2l7.37-4.45c3.59,5.99,7.42,11.92,11.39,17.63l-7.07,4.9c-4.07-5.86-8.01-11.94-11.69-18.08ZM2436.07,1282.94c3.83-6.05,7.5-12.27,10.92-18.48l7.28,3.71c-3.5,6.37-7.27,12.75-11.2,18.95l-6.99-4.19ZM1839.89,1260.07l7.84-3.57c2.82,6.39,5.9,12.77,9.14,18.98l-7.6,4.04c-3.33-6.37-6.49-12.91-9.38-19.45ZM2455.71,1247.51c3.08-6.4,6-13,8.68-19.61l7.71,2.79c-2.76,6.78-5.75,13.55-8.9,20.11l-7.5-3.29ZM1825.73,1221.71l8.19-2.62c2.02,6.75,4.29,13.5,6.74,20.05l-8.02,3.14c-2.52-6.73-4.85-13.65-6.92-20.57ZM2471.03,1210.1c2.28-6.68,4.41-13.56,6.3-20.44l8.05,1.85c-1.94,7.05-4.12,14.09-6.46,20.94l-7.89-2.34ZM1816.41,1181.7l8.43-1.63c1.17,6.99,2.59,14,4.21,20.85l-8.33,2.15c-1.66-7.02-3.12-14.22-4.32-21.37ZM2481.85,1171.26c1.5-6.95,2.8-14,3.86-20.97l8.26.86c-1.09,7.15-2.42,14.38-3.97,21.5l-8.16-1.38ZM1812.1,1140.6l8.56-.6c.3,7.13.84,14.29,1.59,21.29l-8.5,1.16c-.79-7.18-1.34-14.54-1.65-21.85ZM2488.02,1131.55c.43-4.51.76-9,1.01-13.48.14-2.58.25-5.15.33-7.71l8.36-.15c-.07,2.64-.19,5.28-.33,7.92-.25,4.6-.6,9.21-1.04,13.82l-8.33-.4ZM1812.02,1114.04c.19-4.96.48-9.95.88-14.95l8.55.43c-.39,4.88-.67,9.75-.86,14.58-.08,2.3-.14,4.59-.18,6.88l-8.57.12c.04-2.35.1-4.71.18-7.07ZM2488.17,1070.41l8.34-1.15c.65,7.2,1.07,14.49,1.26,21.66l-8.37.62c-.19-7-.61-14.11-1.24-21.13ZM1815.02,1079.6c1.01-7.29,2.26-14.65,3.73-21.85l8.41,1.45c-1.43,7.03-2.65,14.2-3.64,21.32l-8.5-.92ZM2482.1,1031l8.2-2.15c1.54,7.07,2.85,14.23,3.91,21.3l-8.29,1.62c-1.03-6.89-2.32-13.87-3.81-20.77ZM2471.24,992.78l7.93-3.13c2.37,6.74,4.56,13.67,6.49,20.59l-8.09,2.62c-1.89-6.76-4.03-13.51-6.34-20.08ZM2455.78,956.25l7.55-4.05c3.2,6.4,6.22,13,8.98,19.59l-7.77,3.56c-2.69-6.43-5.64-12.85-8.76-19.1ZM2435.92,921.97l7.07-4.91c3.96,5.93,7.76,12.1,11.33,18.3l-7.33,4.47c-3.48-6.05-7.2-12.06-11.06-17.85ZM2411.97,890.45l6.47-5.72c4.68,5.41,9.23,11.05,13.52,16.75l-6.8,5.3c-4.19-5.55-8.63-11.05-13.19-16.33ZM2384.23,862.13l5.78-6.45c5.31,4.78,10.53,9.81,15.53,14.95l-6.16,6.07c-4.87-5.01-9.97-9.92-15.15-14.57ZM2353.11,837.49l4.98-7.09c5.87,4.07,11.7,8.41,17.32,12.91l-5.42,6.75c-5.49-4.38-11.17-8.61-16.89-12.58ZM2319.03,816.91l4.12-7.62c6.31,3.29,12.66,6.87,18.87,10.65l-4.59,7.35c-6.05-3.69-12.25-7.18-18.4-10.38ZM2282.44,800.67l3.19-8.04c6.8,2.52,13.59,5.3,20.17,8.25l-3.69,7.83c-6.42-2.87-13.04-5.58-19.67-8.04ZM2243.92,789.03l2.21-8.34c7.09,1.67,14.2,3.59,21.14,5.72l-2.74,8.2c-6.77-2.07-13.7-3.95-20.61-5.58Z"/>
    <path class="cls-1" d="M1861.08,1065.05c-33.31,163.35,72.05,316.75,234.01,343.58,160.77,26.64,318.5-81.37,353.59-242.17,35.36-162.02-66.66-317.79-229.21-346.99-163.77-29.41-324.83,80.96-358.4,245.58Z"/>
    <path class="cls-1" d="M1886.39,1069.42c-30.56,149.4,65.71,289.85,213.92,314.49,147.21,24.48,291.65-74.44,323.7-221.7,32.28-148.3-61.2-290.72-209.9-317.34-149.72-26.8-296.95,74.09-327.72,224.55Z"/>
    <g>
      <path class="cls-7" d="M2136.76,1356.6c-13.77,0-27.56-1.21-41.28-3.66-60.98-10.88-113.45-45.22-147.76-96.68-17.63-26.45-29.56-55.97-35.45-87.74-6.1-32.86-5.41-66.55,2.05-100.15,14.36-64.69,52.24-121.16,106.66-159.01,54.48-37.88,119.02-52.58,181.75-41.39,60.98,10.88,113.45,45.22,147.76,96.68,17.63,26.45,29.56,55.97,35.45,87.74,6.1,32.86,5.41,66.55-2.05,100.15-14.36,64.69-52.24,121.16-106.66,159.01-42.57,29.6-91.28,45.04-140.47,45.04ZM1918.63,1069.33l4.32.96c-7.2,32.43-7.86,64.93-1.98,96.62,5.68,30.58,17.15,58.99,34.12,84.44,32.95,49.44,83.37,82.42,141.95,92.88,13.15,2.35,26.32,3.48,39.36,3.48,110.67,0,213.25-81.67,238.86-197.09,7.2-32.43,7.86-64.93,1.98-96.62-5.68-30.58-17.15-58.99-34.12-84.44-32.95-49.44-83.36-82.42-141.95-92.88-124.78-22.27-249.59,64.58-278.22,193.6l-4.32-.96Z"/>
      <path class="cls-7" d="M2110.16,1354.23c-4.94,0-9.84-.43-14.68-1.29-24.04-4.29-45.28-19.35-61.41-43.56-33.74-50.62-42.65-136.37-23.25-223.78,14.27-64.32,41.83-122.32,77.59-163.33,36.34-41.68,76.94-60.96,114.32-54.29,24.04,4.29,45.28,19.35,61.41,43.56,33.74,50.62,42.65,136.37,23.25,223.78-14.27,64.32-41.83,122.32-77.59,163.33-31.63,36.27-66.49,55.58-99.63,55.58ZM2188.05,875.54c-30.55,0-63.08,18.26-92.98,52.55-34.81,39.91-61.66,96.53-75.62,159.43-18.89,85.14-10.47,168.28,21.97,216.96,14.77,22.15,33.99,35.9,55.6,39.76,4.32.77,8.7,1.15,13.12,1.15,30.55,0,63.08-18.26,92.98-52.55,34.81-39.91,61.66-96.53,75.62-159.43,18.89-85.14,10.47-168.28-21.97-216.96-14.77-22.15-33.99-35.9-55.6-39.76-4.32-.77-8.7-1.15-13.12-1.15Z"/>
      <rect class="cls-7" x="1905.18" y="1106.04" width="487.84" height="8.85" transform="translate(599.41 2967.94) rotate(-77.49)"/>
      <rect class="cls-7" x="2173.81" y="784.24" width="8.85" height="403.95" transform="translate(824.71 2957.33) rotate(-79.88)"/>
      <rect class="cls-7" x="2119.24" y="1030.15" width="8.85" height="403.95" transform="translate(537.64 3106.32) rotate(-79.88)"/>
      <rect class="cls-7" x="2144.68" y="876.35" width="8.85" height="468.22" transform="translate(678.38 3031.07) rotate(-79.88)"/>
    </g>
  </g>
  <g>
    <g>
      <path class="cls-4" d="M1967.71,1055.16l21.96-99.82,24.9,4.33c6.49,1.13,11.74,2.65,15.77,4.55,4.02,1.91,7.02,4.41,8.98,7.5,1.96,3.09,3.04,6.64,3.23,10.66.19,4.01-.35,8.91-1.62,14.69l-7.92,36c-1.28,5.82-2.88,10.59-4.79,14.32-1.92,3.73-4.44,6.73-7.56,9-3.12,2.27-6.94,3.64-11.44,4.11-4.5.47-9.94.15-16.31-.96l-25.2-4.38ZM1992.93,1043.67l3.34.58c1.67.29,3.12.43,4.34.41,1.22-.02,2.28-.24,3.18-.67.9-.43,1.65-.91,2.24-1.45.59-.54,1.13-1.39,1.61-2.53.48-1.14.87-2.24,1.16-3.3.29-1.05.64-2.48,1.04-4.29l9.44-42.92c.56-2.53.88-4.49.99-5.89.1-1.4-.08-2.72-.55-3.97-.47-1.25-1.36-2.21-2.68-2.87-1.32-.67-3.2-1.21-5.62-1.63l-3.28-.57-15.21,69.11Z"/>
      <path class="cls-4" d="M2039.3,1067.6l21.96-99.82,21.85,3.8-21.96,99.82-21.85-3.8Z"/>
      <path class="cls-4" d="M2101.38,1079.89c-5.02-.87-9.13-2.43-12.33-4.68-3.21-2.24-5.5-5.11-6.88-8.6-1.38-3.49-2.09-7.36-2.12-11.62-.04-4.26.54-9.07,1.72-14.45l7.3-33.17c.97-4.41,2.15-8.31,3.53-11.7,1.38-3.38,3.11-6.42,5.16-9.1,2.06-2.68,4.43-4.79,7.13-6.33,2.69-1.53,5.85-2.54,9.47-3.01,3.62-.47,7.65-.33,12.11.45,4.3.75,8,1.87,11.1,3.37,3.1,1.5,5.57,3.26,7.42,5.29,1.85,2.03,3.2,4.4,4.05,7.11.85,2.71,1.25,5.57,1.21,8.58-.04,3.01-.46,6.33-1.26,9.94l-1.39,6.32-21.38-3.72,1.76-8.01c.34-1.53.58-2.78.73-3.75.15-.97.23-2.06.22-3.27,0-1.21-.18-2.18-.54-2.91-.36-.73-.95-1.41-1.79-2.03-.83-.62-1.93-1.05-3.28-1.29-1.39-.24-2.64-.19-3.72.16-1.09.35-1.98.86-2.66,1.51-.68.65-1.31,1.58-1.88,2.77-.57,1.19-1,2.29-1.29,3.31-.28,1.01-.59,2.26-.92,3.75l-10.05,45.69c-.87,3.97-.98,7.22-.31,9.73.67,2.51,2.55,4.04,5.66,4.58,5.73,1,9.57-2.94,11.53-11.81l2.46-11.2-8.96-1.56,2.9-13.18,28.72,4.99-11.42,51.89-14.51-2.52.59-8.59c-4.35,6.04-10.38,8.38-18.1,7.04Z"/>
      <path class="cls-4" d="M2147.07,1086.34l21.96-99.82,21.85,3.8-21.96,99.82-21.85-3.8Z"/>
      <path class="cls-4" d="M2192.75,1094.28l18.37-83.5-15.23-2.65,3.59-16.31,52.19,9.07-3.59,16.32-15.05-2.62-18.37,83.5-21.91-3.81Z"/>
      <path class="cls-4" d="M2232.87,1101.25l40.71-96.56,24.72,4.3-3.33,103.05-20.18-3.51,1.26-21.78-14.45-2.51-8.01,20.61-20.72-3.6ZM2266.41,1071.39l10.57,1.84,3.19-39.57-13.76,37.74Z"/>
      <path class="cls-4" d="M2304.88,1113.77l21.96-99.82,21.85,3.8-18.68,84.88,22.69,3.94-3.28,14.93-44.54-7.74Z"/>
    </g>
    <g>
      <path class="cls-4" d="M1882.92,1122.77l10.76-48.91-8.92-1.55,2.1-9.56,30.57,5.31-2.1,9.56-8.81-1.53-10.76,48.91-12.84-2.23Z"/>
      <path class="cls-4" d="M1909.54,1127.4l12.86-58.47,15.81,2.75c2.45.43,4.59.94,6.41,1.55,1.83.61,3.49,1.41,4.99,2.4,1.5.99,2.66,2.16,3.48,3.5.82,1.34,1.33,2.96,1.54,4.88.21,1.92.05,4.08-.49,6.51-.84,3.83-2.03,6.82-3.57,8.97-1.54,2.15-3.79,3.64-6.76,4.46l1.74,29.7-13.26-2.3-.61-27.27-3.6-.63-5.76,26.17-12.8-2.22ZM1929.73,1096.02l3.29.57c2.61.45,4.6.09,5.98-1.08,1.37-1.18,2.36-3.14,2.97-5.89.59-2.7.55-4.79-.13-6.26-.68-1.47-2.21-2.42-4.59-2.83l-3.95-.69-3.56,16.19Z"/>
      <path class="cls-4" d="M1949.58,1134.36l23.85-56.56,14.48,2.52-1.95,60.37-11.82-2.05.74-12.76-8.46-1.47-4.69,12.07-12.14-2.11ZM1969.23,1116.87l6.19,1.08,1.87-23.18-8.06,22.1Z"/>
      <path class="cls-4" d="M1991.76,1141.69l12.86-58.47,9.02,1.57,5.75,30.14,6.18-28.07,10.63,1.85-12.86,58.47-8.67-1.51-5.3-32.34-6.66,30.26-10.95-1.9Z"/>
      <path class="cls-4" d="M2047.06,1152.14c-5.5-.96-9.28-3.14-11.32-6.56-2.04-3.42-2.46-8.38-1.25-14.88l11.35.22c-.76,3.68-.91,6.41-.45,8.21.46,1.8,1.52,2.85,3.18,3.13,2.17.38,3.56-.85,4.18-3.67.35-1.58.39-3.08.12-4.5-.27-1.43-.71-2.68-1.32-3.76-.61-1.08-1.51-2.39-2.7-3.91l-4.16-5.37c-1-1.3-1.81-2.46-2.43-3.5-.62-1.04-1.18-2.24-1.69-3.61-.51-1.37-.79-2.84-.83-4.41-.04-1.57.14-3.26.53-5.07,1.07-4.87,3.34-8.38,6.82-10.53s7.73-2.8,12.78-1.95c1.73.3,3.25.76,4.58,1.38,1.33.62,2.41,1.32,3.24,2.1.83.78,1.51,1.7,2.05,2.75.53,1.06.91,2.09,1.14,3.09.23,1,.36,2.11.39,3.33.04,1.21,0,2.31-.11,3.29-.11.98-.26,2.03-.45,3.14l-11.4-.48c.19-.99.34-1.81.45-2.47.11-.65.19-1.35.26-2.1.07-.74.07-1.35,0-1.83-.07-.47-.19-.93-.37-1.36-.18-.43-.46-.77-.83-1-.37-.23-.84-.39-1.4-.46-1.12-.17-2.09.16-2.88.98-.8.83-1.33,1.81-1.58,2.97-.24,1.11-.33,2.13-.26,3.08.07.95.34,1.91.82,2.87.48.96.88,1.69,1.21,2.19.33.5.88,1.28,1.66,2.34l3.97,5.23c1.08,1.46,1.99,2.83,2.73,4.12.73,1.29,1.39,2.72,1.96,4.29.57,1.58.9,3.26.98,5.04s-.1,3.65-.52,5.6c-.93,4.23-3.1,7.5-6.51,9.8-3.41,2.3-7.39,3.05-11.94,2.26Z"/>
      <path class="cls-4" d="M2068.64,1155.05l12.86-58.47,25.11,4.36-1.93,8.78-12.31-2.14-3.24,14.7,10.6,1.84-1.99,9.03-10.6-1.84-5.71,25.96-12.8-2.23Z"/>
      <path class="cls-4" d="M2116.13,1164.15c-3.22-.56-5.87-1.46-7.95-2.72-2.08-1.25-3.61-2.85-4.58-4.79-.97-1.94-1.49-4.11-1.58-6.52-.09-2.41.21-5.17.9-8.3l4.75-21.58c.69-3.15,1.59-5.82,2.69-8.01,1.1-2.19,2.5-4.01,4.22-5.47,1.71-1.46,3.8-2.42,6.26-2.87s5.3-.4,8.52.16c6.27,1.09,10.41,3.49,12.42,7.19,2,3.71,2.31,8.73.91,15.08l-4.75,21.58c-1.4,6.35-3.81,10.91-7.24,13.7-3.43,2.78-8.29,3.63-14.56,2.54ZM2116.26,1154.25c.49.38,1.11.63,1.88.77.77.13,1.46.12,2.08-.06.62-.17,1.12-.44,1.52-.8.39-.36.75-.85,1.07-1.48.32-.63.57-1.23.74-1.79.17-.57.35-1.25.52-2.05l6.17-28.03c.17-.78.3-1.46.38-2.04.08-.58.1-1.21.07-1.89-.03-.68-.16-1.24-.37-1.69-.22-.45-.57-.86-1.07-1.23-.5-.37-1.13-.62-1.9-.75-.77-.13-1.46-.11-2.07.06-.61.18-1.11.43-1.49.77-.39.33-.74.82-1.05,1.47-.31.64-.54,1.23-.7,1.76-.15.53-.32,1.21-.5,2.04l-6.17,28.03c-.18.82-.32,1.51-.4,2.07-.09.56-.12,1.19-.11,1.89.02.7.13,1.27.35,1.73.21.45.56.87,1.05,1.25Z"/>
      <path class="cls-4" d="M2141.56,1167.73l12.86-58.47,15.81,2.75c2.45.43,4.59.94,6.41,1.55,1.83.61,3.49,1.41,4.99,2.41,1.5.99,2.66,2.16,3.48,3.5.82,1.34,1.33,2.97,1.54,4.88.21,1.92.05,4.08-.49,6.51-.84,3.83-2.03,6.82-3.57,8.97-1.54,2.15-3.79,3.64-6.76,4.46l1.74,29.7-13.26-2.3-.61-27.27-3.6-.63-5.76,26.17-12.8-2.22ZM2161.76,1136.35l3.29.57c2.61.45,4.6.09,5.98-1.08,1.37-1.18,2.36-3.14,2.97-5.89.59-2.7.55-4.79-.13-6.26-.68-1.47-2.21-2.42-4.59-2.83l-3.95-.69-3.56,16.19Z"/>
      <path class="cls-4" d="M2184.19,1175.14l13.81-58.3,13.71,2.38-1.09,35.33,14.45-33,13.26,2.3-11.92,58.63-9.16-1.59,7.59-38.96-15.35,37.61-8.01-1.39,1.46-40.31-9.47,38.92-9.27-1.61Z"/>
      <path class="cls-4" d="M2232.01,1183.45l23.85-56.56,14.48,2.52-1.95,60.37-11.82-2.05.74-12.76-8.46-1.47-4.69,12.07-12.14-2.11ZM2251.65,1165.96l6.19,1.08,1.87-23.18-8.06,22.1Z"/>
      <path class="cls-4" d="M2278.07,1191.46l10.76-48.91-8.92-1.55,2.1-9.56,30.57,5.31-2.1,9.56-8.81-1.53-10.76,48.91-12.84-2.23Z"/>
      <path class="cls-4" d="M2304.79,1196.1l12.86-58.47,12.8,2.22-12.86,58.47-12.8-2.23Z"/>
      <path class="cls-4" d="M2342.66,1203.53c-3.22-.56-5.87-1.47-7.95-2.72-2.09-1.25-3.61-2.85-4.58-4.79-.97-1.94-1.49-4.11-1.58-6.52s.21-5.17.9-8.3l4.75-21.58c.69-3.15,1.59-5.82,2.69-8.01,1.1-2.19,2.5-4.01,4.22-5.47,1.71-1.46,3.8-2.42,6.26-2.87,2.46-.45,5.3-.4,8.52.16,6.27,1.09,10.41,3.49,12.42,7.19,2,3.7,2.31,8.73.91,15.08l-4.75,21.58c-1.4,6.35-3.81,10.91-7.24,13.7-3.43,2.79-8.29,3.63-14.56,2.54ZM2342.79,1193.63c.49.38,1.11.63,1.88.77.77.13,1.46.11,2.08-.06.62-.17,1.13-.44,1.52-.8.39-.36.75-.85,1.07-1.48.32-.63.57-1.23.74-1.79.17-.57.35-1.25.52-2.05l6.17-28.03c.17-.78.3-1.45.38-2.04.08-.58.1-1.21.07-1.89-.03-.68-.16-1.24-.37-1.69-.22-.45-.57-.86-1.07-1.23-.5-.37-1.13-.62-1.9-.75-.77-.13-1.46-.11-2.07.06-.61.17-1.11.43-1.49.76-.39.33-.74.82-1.05,1.47-.31.64-.54,1.23-.7,1.76-.15.53-.32,1.21-.5,2.04l-6.17,28.03c-.18.82-.32,1.51-.4,2.07-.09.56-.12,1.19-.11,1.89.02.7.13,1.27.35,1.73.21.45.57.87,1.05,1.25Z"/>
      <path class="cls-4" d="M2368.09,1207.1l12.86-58.47,9.02,1.57,5.75,30.14,6.18-28.07,10.63,1.85-12.86,58.47-8.67-1.51-5.3-32.34-6.66,30.26-10.95-1.9Z"/>
    </g>
  </g>
  <g>
    <g>
      <g>
        <path class="cls-6" d="M725.63,1303.33s-69.73,43.99-88.94,225.79c-19.2,181.79-58.89,227.88-65.29,285.49-6.4,57.61-48.65,273.97,24.32,302.13,72.97,28.17,202.5-87.16,202.5-87.16l44.59-385.24-117.18-341.01Z"/>
        <g>
          <path class="cls-3" d="M1008.97,1194.83s31.44-60.97,42.87-125.74c11.43-64.78-25.72-319.12,100.02-325.78,125.74-6.67,224.81,59.06,241,127.65,16.19,68.59-10.48,147.65-11.43,155.27s-42.01,192.69-64.78,204.81c-46.51,24.76-98.64-4.26-98.64-4.26l-15.58,77.39-193.46-109.32Z"/>
          <g>
            <path class="cls-1" d="M1402.46,895.69s-29.82,76.99-83.04,75.38c-53.22-1.61-37.92,29.23-49.76,66.39-11.84,37.16-24.21,81.96-67.04,107.97-42.83,26.01-138.55,17.25-169.21-27.06-30.66-44.31-58.75-156.89-21.38-246.05,37.37-89.16,137.03-161.02,137.03-161.02,0,0,40.94-52.2,81.48-18.81,40.53,33.39,50.62,37.88,87.26,39.32,36.64,1.44,84.45,21.47,104,58.7,41.93,79.86-19.33,105.17-19.33,105.17Z"/>
            <path class="cls-1" d="M1164.31,727.68s-15.9-94.62-59.14-99.45c-43.24-4.82-50.22,21.1-50.22,21.1,0,0-27.94-101.02-70.98-62.28-43.05,38.73-42.47,52.99-42.47,52.99,0,0-53.86-6.24-62.44,44.76-8.58,51,24.88,82.93,30.16,108.71,14.01,68.43,108.24-6.44,136.3,46l118.79-111.82Z"/>
            <path class="cls-2" d="M1356.94,870c-.08-.46-8.2-46.12-53.27-59.57-9.64-2.88-19.05-5.24-28.16-7.53-35.32-8.88-65.83-16.54-77.52-47.37l5.06-1.92c10.69,28.19,38.53,35.18,73.78,44.04,9.16,2.3,18.64,4.68,28.38,7.59,25.29,7.55,39.47,24.5,46.9,37.4,8.03,13.93,10.09,25.97,10.17,26.48l-5.34.88Z"/>
            <path class="cls-1" d="M1098.99,1127.69c-.5-.37-12.31-9.27-24.38-27.14-11.12-16.46-24.51-43.95-25.16-81.44-.7-40.6,6.23-62.75,11.81-80.55,4.09-13.07,7.33-23.4,5.46-36.46l4.95-.71c2.03,14.18-1.35,24.98-5.63,38.66-5.47,17.46-12.27,39.18-11.58,78.97,1.2,69.25,47.07,104.31,47.53,104.66l-2.99,4.01Z"/>
            <path class="cls-2" d="M1317.2,904.28c-.05-.38-5.67-38.63-38.21-49.9l1.77-5.12c35.73,12.38,41.58,52.58,41.81,54.29l-5.37.73,2.68-.36-2.68.37Z"/>
            <path class="cls-2" d="M1038.79,833.08l-1.24-5.27c59.04-13.86,88.35-47.36,102.54-73.02,15.37-27.78,16.83-52.48,16.84-52.73l5.41.28c-.06,1.06-1.54,26.2-17.51,55.06-14.72,26.62-45.07,61.36-106.04,75.67Z"/>
          </g>
          <path class="cls-3" d="M1304.8,1006.16s-10.38-44.4-41.5-31.06c-31.12,13.34-24.13,76.84-7.62,114.31"/>
          <path class="cls-1" d="M1289.95,1013.42s-5.25-20.64-22.39-13.29c-17.14,7.35-1.15,50.69,7.95,71.33l14.44-58.04Z"/>
        </g>
        <path class="cls-6" d="M1403.18,2164.22c1.07-12.77,2.06-461.61,35.37-532.36,116.34-247.12-164.88-315.34-164.88-315.34-58-92.67-219.52-127.05-253.31-135.74-33.79-8.78-59.47,25.97-68.25,32.26-8.78,6.21-142.51,15.86-220.1,78.47-77.6,62.61-13.64,303.87-38.74,569.3-.07.75-2.94,267.28-2.99,268.04-2.04,32.58,75.48,85.35,178.69,98.65,88.54,11.41,202.52-43.4,301.54-48.4,102.14-5.15,186.23,9.93,232.67-14.89Z"/>
        <path class="cls-1" d="M1228.02,1283.67c-175.01-59.97-268.49-66.67-269.41-66.73l.33-4.99c.93.06,94.97,6.77,270.7,66.98l-1.62,4.73Z"/>
        <path class="cls-1" d="M689.85,2091.79l-5-.13c1.76-69.29,5.86-230.51,5.91-231.08,8.44-89.26,15.72-184.6,11.89-277.01l5-.21c3.84,92.68-3.45,188.2-11.9,277.62-.1,3.18-3.04,118.11-5.9,230.81Z"/>
      </g>
      <path class="cls-1" d="M1632.5,1219.59l177.6,30.6c9.36,1.61,14.92,11.36,11.55,20.23l-142.16,373.03c-2.75,7.23-10.51,11.21-17.98,9.23l-181.09-48.11c-8.77-2.33-13.52-11.82-10.12-20.24l145.65-355.51c2.66-6.59,9.55-10.43,16.56-9.22Z"/>
      <polygon class="cls-4" points="1496.12 1579.88 1632.17 1246.3 1795.49 1276.71 1656.05 1620.19 1496.12 1579.88"/>
      <path class="cls-3" d="M1744.65,1620.4s16.33-37.33,17.5-46.66,31.91-38.43,37.33-72.33c9.33-58.33-7-134.16-12.83-136.49-5.83-2.33-38.5,101.49-38.5,101.49,0,0-37.33-32.66-49-25.66-11.67,7-5.64,34.61.19,59.11,5.83,24.5-47.76,60.56-42.19,83.22,5.68,23.09,87.49,37.33,87.49,37.33Z"/>
      <path class="cls-6" d="M1393.12,1375.41s111.99,56,127.55,149.32,26.44,172.65,26.44,172.65l115.1-135.32s82.44,4.67,110.44,79.33c0,0-112.38,440.58-250.81,428.13-223.28-20.07-229.82-353.47-229.82-353.47l101.1-340.64Z"/>
    </g>
    <path class="cls-1" d="M1401.97,2016.14c-.98-1.39-98.63-140.64-131.03-265.63l4.84-1.25c32.18,124.11,129.3,262.61,130.28,264l-4.08,2.88Z"/>
    <path class="cls-1" d="M1553.47,1843.58l-4.94-.74c10.31-68.75-3.73-144.23-3.87-144.99l4.91-.93c.14.76,14.35,77.05,3.9,146.66Z"/>
  </g>
  <g>
    <g>
      <g>
        <g>
          <polygon class="cls-6" points="2277.09 288.55 2410.77 472.98 2080.46 426.31 2277.09 288.55"/>
          <polyline class="cls-6" points="2410.77 472.98 2277.09 288.55 2225.04 323.61"/>
        </g>
        <polygon class="cls-6" points="2143.64 431.07 2349.17 460.11 2341.4 498.6 2333.69 538.04 2313.07 535.12 2316.54 517.34 2294.17 514.18 2296.98 499.79 2274.62 496.63 2269.1 524.85 2251.23 522.33 2256.64 494.67 2239.79 492.29 2229.37 545.63 2205.56 542.27 2210.74 515.74 2193.32 513.27 2191.28 523.72 2171.53 520.93 2177.16 492.14 2157.12 489.31 2144.54 553.66 2119.86 550.17 2143.64 431.07"/>
      </g>
      <polygon class="cls-6" points="2294.17 706.19 2298.65 706.82 2331.97 536.35 2327.48 535.71 2294.17 706.19"/>
      <polygon class="cls-6" points="2230.08 763.85 2234.57 764.48 2265 608.73 2295.06 587.75 2309.47 514.02 2304.98 513.39 2290.93 585.31 2260.87 606.29 2230.08 763.85"/>
      <polygon class="cls-6" points="2222.39 656.6 2226.88 657.23 2239.66 591.81 2273.18 568.41 2279.2 537.59 2274.71 536.96 2269.04 565.97 2235.53 589.37 2222.39 656.6"/>
      <polygon class="cls-6" points="2250.19 555.53 2254.68 556.17 2261.52 521.17 2257.03 520.54 2250.19 555.53"/>
      <polygon class="cls-6" points="2202.75 757.08 2207.24 757.72 2218.39 700.65 2196.52 670.58 2221.27 543.91 2216.78 543.27 2191.68 671.75 2213.55 701.82 2202.75 757.08"/>
      <polygon class="cls-6" points="2194.69 711.7 2198.47 709.07 2179.24 682.65 2199.47 579.11 2194.98 578.48 2174.4 683.82 2194.69 711.7"/>
      <polygon class="cls-6" points="2267.24 734 2271.73 734.63 2292.41 628.79 2287.93 628.16 2267.24 734"/>
      <polygon class="cls-6" points="2138.37 669.68 2142.85 670.31 2155.14 607.42 2169.66 597.29 2184.73 520.18 2180.24 519.55 2165.52 594.85 2151.01 604.98 2138.37 669.68"/>
      <polygon class="cls-6" points="2127.92 743.03 2132.4 743.66 2138.57 712.11 2161.72 695.94 2176.23 621.66 2171.75 621.02 2157.58 693.51 2134.43 709.67 2127.92 743.03"/>
      <polygon class="cls-6" points="2114.28 702.82 2118.77 703.45 2133.78 626.62 2123.2 612.08 2135.38 549.76 2130.89 549.12 2118.36 613.25 2128.94 627.79 2114.28 702.82"/>
      <polygon class="cls-6" points="2091.09 731.44 2095.57 732.08 2115.87 628.21 2111.38 627.57 2091.09 731.44"/>
    </g>
    <path class="cls-6" d="M2244.57,556.99c-.8,4.11,1.98,7.93,6.21,8.53,4.23.6,8.31-2.25,9.12-6.36.8-4.11-1.98-7.93-6.21-8.53-4.23-.6-8.31,2.25-9.12,6.36Z"/>
    <path class="cls-6" d="M2268.96,534.11c-.8,4.11,1.98,7.93,6.21,8.53s8.31-2.25,9.12-6.36c.8-4.11-1.98-7.93-6.21-8.53s-8.31,2.25-9.12,6.36Z"/>
    <path class="cls-6" d="M2283.24,622.49c-.8,4.11,1.98,7.93,6.21,8.53s8.31-2.25,9.12-6.36c.8-4.11-1.98-7.93-6.21-8.53s-8.31,2.25-9.12,6.36Z"/>
    <path class="cls-6" d="M2287.37,709.8c-.8,4.11,1.98,7.93,6.21,8.53,4.23.6,8.31-2.25,9.12-6.36s-1.98-7.93-6.21-8.53c-4.23-.6-8.31,2.25-9.12,6.36Z"/>
    <path class="cls-6" d="M2260.52,738.78c-.8,4.11,1.98,7.93,6.21,8.53,4.23.6,8.31-2.25,9.12-6.36s-1.98-7.93-6.21-8.53-8.31,2.25-9.12,6.36Z"/>
    <path class="cls-6" d="M2224.21,767.29c-.8,4.11,1.98,7.93,6.21,8.53s8.31-2.25,9.12-6.36-1.98-7.93-6.21-8.53c-4.23-.6-8.31,2.25-9.12,6.36Z"/>
    <path class="cls-6" d="M2196.26,762.18c-.8,4.11,1.98,7.93,6.21,8.53,4.23.6,8.31-2.25,9.12-6.36s-1.98-7.93-6.21-8.53c-4.23-.6-8.31,2.25-9.12,6.36Z"/>
    <path class="cls-6" d="M2190.72,712.67c-.8,4.11,1.98,7.93,6.21,8.53s8.31-2.25,9.12-6.36-1.98-7.93-6.21-8.53c-4.23-.6-8.31,2.25-9.12,6.36Z"/>
    <path class="cls-6" d="M2121.53,747.57c-.8,4.11,1.98,7.93,6.21,8.53,4.23.6,8.31-2.25,9.12-6.36s-1.98-7.93-6.21-8.53c-4.23-.6-8.31,2.25-9.12,6.36Z"/>
    <path class="cls-6" d="M2107.38,706.99c-.8,4.11,1.98,7.93,6.21,8.53,4.23.6,8.31-2.25,9.12-6.36s-1.98-7.93-6.21-8.53-8.31,2.25-9.12,6.36Z"/>
    <path class="cls-6" d="M2131.89,672.82c-.8,4.11,1.98,7.93,6.21,8.53,4.23.6,8.31-2.25,9.12-6.36.8-4.11-1.98-7.93-6.21-8.53s-8.31,2.25-9.12,6.36Z"/>
    <path class="cls-6" d="M2084.8,736.65c-.8,4.11,1.98,7.93,6.21,8.53,4.23.6,8.31-2.25,9.12-6.36s-1.98-7.93-6.21-8.53c-4.23-.6-8.31,2.25-9.12,6.36Z"/>
    <path class="cls-6" d="M2105.92,628.55c-.8,4.11,1.98,7.93,6.21,8.53s8.31-2.25,9.12-6.36-1.98-7.93-6.21-8.53c-4.23-.6-8.31,2.25-9.12,6.36Z"/>
    <path class="cls-6" d="M2165.46,620.13c-.8,4.11,1.98,7.93,6.21,8.53s8.31-2.25,9.12-6.36-1.98-7.93-6.21-8.53c-4.23-.6-8.31,2.25-9.12,6.36Z"/>
    <path class="cls-6" d="M2189.33,577.39c-.8,4.11,1.98,7.93,6.21,8.53,4.23.6,8.31-2.25,9.12-6.36s-1.98-7.93-6.21-8.53c-4.23-.6-8.31,2.25-9.12,6.36Z"/>
    <path class="cls-6" d="M2215.4,660.84c-.8,4.11,1.98,7.93,6.21,8.53s8.31-2.25,9.12-6.36-1.98-7.93-6.21-8.53-8.31,2.25-9.12,6.36Z"/>
  </g>
</svg>