<svg width="600" height="600" viewBox="0 0 600 600" fill="none" xmlns="http://www.w3.org/2000/svg">
  <!-- Digital Transformation Illustration -->
  <circle cx="300" cy="300" r="250" fill="#2196F3" fill-opacity="0.1"/>
  <circle cx="300" cy="300" r="200" fill="#2196F3" fill-opacity="0.2"/>
  <circle cx="300" cy="300" r="150" fill="#2196F3" fill-opacity="0.3"/>
  
  <!-- Computer Screen -->
  <rect x="150" y="200" width="300" height="200" rx="10" fill="#FFFFFF"/>
  <rect x="170" y="220" width="260" height="160" rx="5" fill="#E3F2FD"/>
  
  <!-- Code Elements -->
  <rect x="190" y="240" width="100" height="10" rx="5" fill="#2196F3"/>
  <rect x="190" y="260" width="150" height="10" rx="5" fill="#2196F3" fill-opacity="0.7"/>
  <rect x="190" y="280" width="120" height="10" rx="5" fill="#2196F3" fill-opacity="0.5"/>
  
  <!-- Person -->
  <circle cx="400" cy="350" r="30" fill="#FF5722"/>
  <path d="M385 390C385 379 393 370 403 370H397C407 370 415 379 415 390" stroke="#FF5722" stroke-width="4"/>
  
  <!-- Floating Elements -->
  <circle cx="450" cy="200" r="15" fill="#FF5722" fill-opacity="0.5"/>
  <circle cx="150" cy="350" r="20" fill="#2196F3" fill-opacity="0.5"/>
  <circle cx="200" cy="150" r="10" fill="#FF5722" fill-opacity="0.3"/>
</svg> 